ISO-10303-21;
HEADER;
/* Generated by software containing ST-Developer
 * from STEP Tools, Inc. (www.steptools.com) 
 */

FILE_DESCRIPTION(
/* description */ (''),
/* implementation_level */ '2;1');

FILE_NAME(
/* name */ 'case_bottom.step',
/* time_stamp */ '2026-09-15T14:49:11+05:30',
/* author */ (''),
/* organization */ (''),
/* preprocessor_version */ 'ST-DEVELOPER v20.2',
/* originating_system */ 'Autodesk Translation Framework v15.15.0.0',
/* authorisation */ '');

FILE_SCHEMA (('AUTOMOTIVE_DESIGN { 1 0 10303 214 3 1 1 }'));
ENDSEC;

DATA;
#10=MECHANICAL_DESIGN_GEOMETRIC_PRESENTATION_REPRESENTATION('',(#13,#14,
#15,#16,#17),#1631);
#11=SHAPE_REPRESENTATION_RELATIONSHIP('SRR','None',#1638,#12);
#12=ADVANCED_BREP_SHAPE_REPRESENTATION('',(#18,#19,#20,#21,#22),#1630);
#13=STYLED_ITEM('',(#1648),#18);
#14=STYLED_ITEM('',(#1647),#19);
#15=STYLED_ITEM('',(#1647),#20);
#16=STYLED_ITEM('',(#1647),#21);
#17=STYLED_ITEM('',(#1647),#22);
#18=MANIFOLD_SOLID_BREP('Body1',#943);
#19=MANIFOLD_SOLID_BREP('Body2',#944);
#20=MANIFOLD_SOLID_BREP('Body3',#945);
#21=MANIFOLD_SOLID_BREP('Body4',#946);
#22=MANIFOLD_SOLID_BREP('Body5',#947);
#23=CONICAL_SURFACE('',#990,1.5,0.785398163397448);
#24=CONICAL_SURFACE('',#994,1.5,0.785398163397449);
#25=CONICAL_SURFACE('',#998,1.5,0.785398163397448);
#26=CONICAL_SURFACE('',#1002,1.5,0.785398163397447);
#27=FACE_BOUND('',#137,.T.);
#28=FACE_BOUND('',#140,.T.);
#29=FACE_BOUND('',#143,.T.);
#30=FACE_BOUND('',#146,.T.);
#31=FACE_BOUND('',#164,.T.);
#32=FACE_BOUND('',#165,.T.);
#33=FACE_BOUND('',#166,.T.);
#34=FACE_BOUND('',#167,.T.);
#35=FACE_BOUND('',#185,.T.);
#36=FACE_BOUND('',#186,.T.);
#37=FACE_BOUND('',#187,.T.);
#38=FACE_BOUND('',#188,.T.);
#39=FACE_BOUND('',#192,.T.);
#40=FACE_BOUND('',#194,.T.);
#41=FACE_BOUND('',#198,.T.);
#42=FACE_BOUND('',#200,.T.);
#43=FACE_BOUND('',#204,.T.);
#44=FACE_BOUND('',#206,.T.);
#45=FACE_BOUND('',#210,.T.);
#46=FACE_BOUND('',#212,.T.);
#47=PLANE('',#964);
#48=PLANE('',#969);
#49=PLANE('',#974);
#50=PLANE('',#979);
#51=PLANE('',#989);
#52=PLANE('',#993);
#53=PLANE('',#997);
#54=PLANE('',#1001);
#55=PLANE('',#1007);
#56=PLANE('',#1010);
#57=PLANE('',#1011);
#58=PLANE('',#1012);
#59=PLANE('',#1017);
#60=PLANE('',#1021);
#61=PLANE('',#1025);
#62=PLANE('',#1029);
#63=PLANE('',#1033);
#64=PLANE('',#1034);
#65=PLANE('',#1035);
#66=PLANE('',#1036);
#67=PLANE('',#1037);
#68=PLANE('',#1038);
#69=PLANE('',#1045);
#70=PLANE('',#1046);
#71=PLANE('',#1053);
#72=PLANE('',#1054);
#73=PLANE('',#1061);
#74=PLANE('',#1062);
#75=PLANE('',#1069);
#76=PLANE('',#1070);
#77=FACE_OUTER_BOUND('',#135,.T.);
#78=FACE_OUTER_BOUND('',#136,.T.);
#79=FACE_OUTER_BOUND('',#138,.T.);
#80=FACE_OUTER_BOUND('',#139,.T.);
#81=FACE_OUTER_BOUND('',#141,.T.);
#82=FACE_OUTER_BOUND('',#142,.T.);
#83=FACE_OUTER_BOUND('',#144,.T.);
#84=FACE_OUTER_BOUND('',#145,.T.);
#85=FACE_OUTER_BOUND('',#147,.T.);
#86=FACE_OUTER_BOUND('',#148,.T.);
#87=FACE_OUTER_BOUND('',#149,.T.);
#88=FACE_OUTER_BOUND('',#150,.T.);
#89=FACE_OUTER_BOUND('',#151,.T.);
#90=FACE_OUTER_BOUND('',#152,.T.);
#91=FACE_OUTER_BOUND('',#153,.T.);
#92=FACE_OUTER_BOUND('',#154,.T.);
#93=FACE_OUTER_BOUND('',#155,.T.);
#94=FACE_OUTER_BOUND('',#156,.T.);
#95=FACE_OUTER_BOUND('',#157,.T.);
#96=FACE_OUTER_BOUND('',#158,.T.);
#97=FACE_OUTER_BOUND('',#159,.T.);
#98=FACE_OUTER_BOUND('',#160,.T.);
#99=FACE_OUTER_BOUND('',#161,.T.);
#100=FACE_OUTER_BOUND('',#162,.T.);
#101=FACE_OUTER_BOUND('',#163,.T.);
#102=FACE_OUTER_BOUND('',#168,.T.);
#103=FACE_OUTER_BOUND('',#169,.T.);
#104=FACE_OUTER_BOUND('',#170,.T.);
#105=FACE_OUTER_BOUND('',#171,.T.);
#106=FACE_OUTER_BOUND('',#172,.T.);
#107=FACE_OUTER_BOUND('',#173,.T.);
#108=FACE_OUTER_BOUND('',#174,.T.);
#109=FACE_OUTER_BOUND('',#175,.T.);
#110=FACE_OUTER_BOUND('',#176,.T.);
#111=FACE_OUTER_BOUND('',#177,.T.);
#112=FACE_OUTER_BOUND('',#178,.T.);
#113=FACE_OUTER_BOUND('',#179,.T.);
#114=FACE_OUTER_BOUND('',#180,.T.);
#115=FACE_OUTER_BOUND('',#181,.T.);
#116=FACE_OUTER_BOUND('',#182,.T.);
#117=FACE_OUTER_BOUND('',#183,.T.);
#118=FACE_OUTER_BOUND('',#184,.T.);
#119=FACE_OUTER_BOUND('',#189,.T.);
#120=FACE_OUTER_BOUND('',#190,.T.);
#121=FACE_OUTER_BOUND('',#191,.T.);
#122=FACE_OUTER_BOUND('',#193,.T.);
#123=FACE_OUTER_BOUND('',#195,.T.);
#124=FACE_OUTER_BOUND('',#196,.T.);
#125=FACE_OUTER_BOUND('',#197,.T.);
#126=FACE_OUTER_BOUND('',#199,.T.);
#127=FACE_OUTER_BOUND('',#201,.T.);
#128=FACE_OUTER_BOUND('',#202,.T.);
#129=FACE_OUTER_BOUND('',#203,.T.);
#130=FACE_OUTER_BOUND('',#205,.T.);
#131=FACE_OUTER_BOUND('',#207,.T.);
#132=FACE_OUTER_BOUND('',#208,.T.);
#133=FACE_OUTER_BOUND('',#209,.T.);
#134=FACE_OUTER_BOUND('',#211,.T.);
#135=EDGE_LOOP('',(#613,#614,#615,#616));
#136=EDGE_LOOP('',(#617));
#137=EDGE_LOOP('',(#618));
#138=EDGE_LOOP('',(#619,#620,#621,#622));
#139=EDGE_LOOP('',(#623));
#140=EDGE_LOOP('',(#624));
#141=EDGE_LOOP('',(#625,#626,#627,#628));
#142=EDGE_LOOP('',(#629));
#143=EDGE_LOOP('',(#630));
#144=EDGE_LOOP('',(#631,#632,#633,#634));
#145=EDGE_LOOP('',(#635));
#146=EDGE_LOOP('',(#636));
#147=EDGE_LOOP('',(#637,#638,#639,#640));
#148=EDGE_LOOP('',(#641,#642,#643,#644));
#149=EDGE_LOOP('',(#645,#646,#647,#648));
#150=EDGE_LOOP('',(#649,#650,#651,#652));
#151=EDGE_LOOP('',(#653,#654,#655,#656));
#152=EDGE_LOOP('',(#657,#658,#659,#660));
#153=EDGE_LOOP('',(#661,#662,#663,#664));
#154=EDGE_LOOP('',(#665,#666,#667,#668));
#155=EDGE_LOOP('',(#669,#670,#671,#672));
#156=EDGE_LOOP('',(#673,#674,#675,#676));
#157=EDGE_LOOP('',(#677,#678,#679,#680));
#158=EDGE_LOOP('',(#681,#682,#683,#684));
#159=EDGE_LOOP('',(#685,#686,#687,#688));
#160=EDGE_LOOP('',(#689,#690,#691,#692));
#161=EDGE_LOOP('',(#693,#694,#695,#696));
#162=EDGE_LOOP('',(#697,#698,#699,#700));
#163=EDGE_LOOP('',(#701,#702,#703,#704,#705,#706,#707,#708));
#164=EDGE_LOOP('',(#709));
#165=EDGE_LOOP('',(#710));
#166=EDGE_LOOP('',(#711));
#167=EDGE_LOOP('',(#712));
#168=EDGE_LOOP('',(#713,#714,#715,#716,#717,#718,#719,#720,#721,#722,#723,
#724,#725,#726,#727,#728));
#169=EDGE_LOOP('',(#729,#730,#731,#732));
#170=EDGE_LOOP('',(#733,#734,#735,#736));
#171=EDGE_LOOP('',(#737,#738,#739,#740));
#172=EDGE_LOOP('',(#741,#742,#743,#744));
#173=EDGE_LOOP('',(#745,#746,#747,#748));
#174=EDGE_LOOP('',(#749,#750,#751,#752));
#175=EDGE_LOOP('',(#753,#754,#755,#756));
#176=EDGE_LOOP('',(#757,#758,#759,#760));
#177=EDGE_LOOP('',(#761,#762,#763,#764));
#178=EDGE_LOOP('',(#765,#766,#767,#768));
#179=EDGE_LOOP('',(#769,#770,#771,#772,#773,#774,#775,#776,#777,#778,#779,
#780));
#180=EDGE_LOOP('',(#781,#782,#783,#784,#785,#786,#787,#788,#789,#790,#791,
#792));
#181=EDGE_LOOP('',(#793,#794,#795,#796));
#182=EDGE_LOOP('',(#797,#798,#799,#800));
#183=EDGE_LOOP('',(#801,#802,#803,#804));
#184=EDGE_LOOP('',(#805,#806,#807,#808));
#185=EDGE_LOOP('',(#809));
#186=EDGE_LOOP('',(#810));
#187=EDGE_LOOP('',(#811));
#188=EDGE_LOOP('',(#812));
#189=EDGE_LOOP('',(#813,#814,#815,#816));
#190=EDGE_LOOP('',(#817,#818,#819,#820));
#191=EDGE_LOOP('',(#821));
#192=EDGE_LOOP('',(#822));
#193=EDGE_LOOP('',(#823));
#194=EDGE_LOOP('',(#824));
#195=EDGE_LOOP('',(#825,#826,#827,#828));
#196=EDGE_LOOP('',(#829,#830,#831,#832));
#197=EDGE_LOOP('',(#833));
#198=EDGE_LOOP('',(#834));
#199=EDGE_LOOP('',(#835));
#200=EDGE_LOOP('',(#836));
#201=EDGE_LOOP('',(#837,#838,#839,#840));
#202=EDGE_LOOP('',(#841,#842,#843,#844));
#203=EDGE_LOOP('',(#845));
#204=EDGE_LOOP('',(#846));
#205=EDGE_LOOP('',(#847));
#206=EDGE_LOOP('',(#848));
#207=EDGE_LOOP('',(#849,#850,#851,#852));
#208=EDGE_LOOP('',(#853,#854,#855,#856));
#209=EDGE_LOOP('',(#857));
#210=EDGE_LOOP('',(#858));
#211=EDGE_LOOP('',(#859));
#212=EDGE_LOOP('',(#860));
#213=LINE('',#1370,#285);
#214=LINE('',#1379,#286);
#215=LINE('',#1388,#287);
#216=LINE('',#1397,#288);
#217=LINE('',#1405,#289);
#218=LINE('',#1409,#290);
#219=LINE('',#1413,#291);
#220=LINE('',#1417,#292);
#221=LINE('',#1421,#293);
#222=LINE('',#1423,#294);
#223=LINE('',#1425,#295);
#224=LINE('',#1426,#296);
#225=LINE('',#1431,#297);
#226=LINE('',#1436,#298);
#227=LINE('',#1437,#299);
#228=LINE('',#1438,#300);
#229=LINE('',#1443,#301);
#230=LINE('',#1448,#302);
#231=LINE('',#1449,#303);
#232=LINE('',#1450,#304);
#233=LINE('',#1455,#305);
#234=LINE('',#1460,#306);
#235=LINE('',#1461,#307);
#236=LINE('',#1462,#308);
#237=LINE('',#1468,#309);
#238=LINE('',#1471,#310);
#239=LINE('',#1474,#311);
#240=LINE('',#1475,#312);
#241=LINE('',#1478,#313);
#242=LINE('',#1482,#314);
#243=LINE('',#1483,#315);
#244=LINE('',#1489,#316);
#245=LINE('',#1491,#317);
#246=LINE('',#1493,#318);
#247=LINE('',#1495,#319);
#248=LINE('',#1497,#320);
#249=LINE('',#1499,#321);
#250=LINE('',#1501,#322);
#251=LINE('',#1503,#323);
#252=LINE('',#1505,#324);
#253=LINE('',#1508,#325);
#254=LINE('',#1510,#326);
#255=LINE('',#1512,#327);
#256=LINE('',#1513,#328);
#257=LINE('',#1519,#329);
#258=LINE('',#1523,#330);
#259=LINE('',#1525,#331);
#260=LINE('',#1526,#332);
#261=LINE('',#1531,#333);
#262=LINE('',#1535,#334);
#263=LINE('',#1537,#335);
#264=LINE('',#1538,#336);
#265=LINE('',#1543,#337);
#266=LINE('',#1547,#338);
#267=LINE('',#1549,#339);
#268=LINE('',#1550,#340);
#269=LINE('',#1556,#341);
#270=LINE('',#1558,#342);
#271=LINE('',#1559,#343);
#272=LINE('',#1564,#344);
#273=LINE('',#1565,#345);
#274=LINE('',#1566,#346);
#275=LINE('',#1568,#347);
#276=LINE('',#1570,#348);
#277=LINE('',#1576,#349);
#278=LINE('',#1582,#350);
#279=LINE('',#1590,#351);
#280=LINE('',#1596,#352);
#281=LINE('',#1604,#353);
#282=LINE('',#1610,#354);
#283=LINE('',#1618,#355);
#284=LINE('',#1624,#356);
#285=VECTOR('',#1077,3.25);
#286=VECTOR('',#1088,3.25);
#287=VECTOR('',#1099,3.25);
#288=VECTOR('',#1110,3.25);
#289=VECTOR('',#1121,1.6);
#290=VECTOR('',#1126,1.6);
#291=VECTOR('',#1131,1.6);
#292=VECTOR('',#1136,1.6);
#293=VECTOR('',#1139,10.);
#294=VECTOR('',#1140,10.);
#295=VECTOR('',#1141,10.);
#296=VECTOR('',#1142,10.);
#297=VECTOR('',#1147,10.);
#298=VECTOR('',#1152,10.);
#299=VECTOR('',#1153,10.);
#300=VECTOR('',#1154,10.);
#301=VECTOR('',#1159,10.);
#302=VECTOR('',#1164,10.);
#303=VECTOR('',#1165,10.);
#304=VECTOR('',#1166,10.);
#305=VECTOR('',#1171,10.);
#306=VECTOR('',#1176,10.);
#307=VECTOR('',#1177,10.);
#308=VECTOR('',#1178,10.);
#309=VECTOR('',#1187,10.);
#310=VECTOR('',#1190,10.);
#311=VECTOR('',#1193,10.);
#312=VECTOR('',#1194,10.);
#313=VECTOR('',#1197,10.);
#314=VECTOR('',#1202,10.);
#315=VECTOR('',#1203,10.);
#316=VECTOR('',#1210,10.);
#317=VECTOR('',#1211,10.);
#318=VECTOR('',#1212,10.);
#319=VECTOR('',#1213,10.);
#320=VECTOR('',#1214,10.);
#321=VECTOR('',#1215,10.);
#322=VECTOR('',#1216,10.);
#323=VECTOR('',#1217,10.);
#324=VECTOR('',#1218,10.);
#325=VECTOR('',#1221,10.);
#326=VECTOR('',#1224,10.);
#327=VECTOR('',#1227,10.);
#328=VECTOR('',#1228,10.);
#329=VECTOR('',#1235,10.);
#330=VECTOR('',#1240,10.);
#331=VECTOR('',#1241,10.);
#332=VECTOR('',#1242,10.);
#333=VECTOR('',#1247,10.);
#334=VECTOR('',#1252,10.);
#335=VECTOR('',#1253,10.);
#336=VECTOR('',#1254,10.);
#337=VECTOR('',#1259,10.);
#338=VECTOR('',#1264,10.);
#339=VECTOR('',#1265,10.);
#340=VECTOR('',#1266,10.);
#341=VECTOR('',#1275,10.);
#342=VECTOR('',#1276,10.);
#343=VECTOR('',#1277,10.);
#344=VECTOR('',#1282,10.);
#345=VECTOR('',#1283,10.);
#346=VECTOR('',#1284,10.);
#347=VECTOR('',#1287,10.);
#348=VECTOR('',#1290,10.);
#349=VECTOR('',#1297,1.6);
#350=VECTOR('',#1304,3.1);
#351=VECTOR('',#1315,1.6);
#352=VECTOR('',#1322,3.1);
#353=VECTOR('',#1333,1.6);
#354=VECTOR('',#1340,3.1);
#355=VECTOR('',#1351,1.6);
#356=VECTOR('',#1358,3.1);
#357=CIRCLE('',#962,3.25);
#358=CIRCLE('',#963,3.25);
#359=CIRCLE('',#965,1.6);
#360=CIRCLE('',#967,3.25);
#361=CIRCLE('',#968,3.25);
#362=CIRCLE('',#970,1.6);
#363=CIRCLE('',#972,3.25);
#364=CIRCLE('',#973,3.25);
#365=CIRCLE('',#975,1.6);
#366=CIRCLE('',#977,3.25);
#367=CIRCLE('',#978,3.25);
#368=CIRCLE('',#980,1.6);
#369=CIRCLE('',#982,1.6);
#370=CIRCLE('',#984,1.6);
#371=CIRCLE('',#986,1.6);
#372=CIRCLE('',#988,1.6);
#373=CIRCLE('',#991,2.);
#374=CIRCLE('',#992,1.);
#375=CIRCLE('',#995,2.);
#376=CIRCLE('',#996,1.);
#377=CIRCLE('',#999,2.);
#378=CIRCLE('',#1000,1.);
#379=CIRCLE('',#1003,2.);
#380=CIRCLE('',#1004,1.);
#381=CIRCLE('',#1006,2.);
#382=CIRCLE('',#1009,2.);
#383=CIRCLE('',#1013,2.);
#384=CIRCLE('',#1014,2.);
#385=CIRCLE('',#1019,1.1);
#386=CIRCLE('',#1020,1.1);
#387=CIRCLE('',#1023,1.1);
#388=CIRCLE('',#1024,1.1);
#389=CIRCLE('',#1027,1.1);
#390=CIRCLE('',#1028,1.1);
#391=CIRCLE('',#1031,1.1);
#392=CIRCLE('',#1032,1.1);
#393=CIRCLE('',#1040,1.6);
#394=CIRCLE('',#1041,1.6);
#395=CIRCLE('',#1043,3.1);
#396=CIRCLE('',#1044,3.1);
#397=CIRCLE('',#1048,1.6);
#398=CIRCLE('',#1049,1.6);
#399=CIRCLE('',#1051,3.1);
#400=CIRCLE('',#1052,3.1);
#401=CIRCLE('',#1056,1.6);
#402=CIRCLE('',#1057,1.6);
#403=CIRCLE('',#1059,3.1);
#404=CIRCLE('',#1060,3.1);
#405=CIRCLE('',#1064,1.6);
#406=CIRCLE('',#1065,1.6);
#407=CIRCLE('',#1067,3.1);
#408=CIRCLE('',#1068,3.1);
#409=VERTEX_POINT('',#1367);
#410=VERTEX_POINT('',#1369);
#411=VERTEX_POINT('',#1373);
#412=VERTEX_POINT('',#1376);
#413=VERTEX_POINT('',#1378);
#414=VERTEX_POINT('',#1382);
#415=VERTEX_POINT('',#1385);
#416=VERTEX_POINT('',#1387);
#417=VERTEX_POINT('',#1391);
#418=VERTEX_POINT('',#1394);
#419=VERTEX_POINT('',#1396);
#420=VERTEX_POINT('',#1400);
#421=VERTEX_POINT('',#1403);
#422=VERTEX_POINT('',#1407);
#423=VERTEX_POINT('',#1411);
#424=VERTEX_POINT('',#1415);
#425=VERTEX_POINT('',#1419);
#426=VERTEX_POINT('',#1420);
#427=VERTEX_POINT('',#1422);
#428=VERTEX_POINT('',#1424);
#429=VERTEX_POINT('',#1428);
#430=VERTEX_POINT('',#1430);
#431=VERTEX_POINT('',#1434);
#432=VERTEX_POINT('',#1435);
#433=VERTEX_POINT('',#1440);
#434=VERTEX_POINT('',#1442);
#435=VERTEX_POINT('',#1446);
#436=VERTEX_POINT('',#1447);
#437=VERTEX_POINT('',#1452);
#438=VERTEX_POINT('',#1454);
#439=VERTEX_POINT('',#1458);
#440=VERTEX_POINT('',#1459);
#441=VERTEX_POINT('',#1467);
#442=VERTEX_POINT('',#1469);
#443=VERTEX_POINT('',#1473);
#444=VERTEX_POINT('',#1477);
#445=VERTEX_POINT('',#1481);
#446=VERTEX_POINT('',#1486);
#447=VERTEX_POINT('',#1488);
#448=VERTEX_POINT('',#1490);
#449=VERTEX_POINT('',#1492);
#450=VERTEX_POINT('',#1494);
#451=VERTEX_POINT('',#1496);
#452=VERTEX_POINT('',#1498);
#453=VERTEX_POINT('',#1500);
#454=VERTEX_POINT('',#1502);
#455=VERTEX_POINT('',#1504);
#456=VERTEX_POINT('',#1506);
#457=VERTEX_POINT('',#1516);
#458=VERTEX_POINT('',#1518);
#459=VERTEX_POINT('',#1522);
#460=VERTEX_POINT('',#1524);
#461=VERTEX_POINT('',#1528);
#462=VERTEX_POINT('',#1530);
#463=VERTEX_POINT('',#1534);
#464=VERTEX_POINT('',#1536);
#465=VERTEX_POINT('',#1540);
#466=VERTEX_POINT('',#1542);
#467=VERTEX_POINT('',#1546);
#468=VERTEX_POINT('',#1548);
#469=VERTEX_POINT('',#1555);
#470=VERTEX_POINT('',#1557);
#471=VERTEX_POINT('',#1562);
#472=VERTEX_POINT('',#1563);
#473=VERTEX_POINT('',#1573);
#474=VERTEX_POINT('',#1575);
#475=VERTEX_POINT('',#1579);
#476=VERTEX_POINT('',#1581);
#477=VERTEX_POINT('',#1587);
#478=VERTEX_POINT('',#1589);
#479=VERTEX_POINT('',#1593);
#480=VERTEX_POINT('',#1595);
#481=VERTEX_POINT('',#1601);
#482=VERTEX_POINT('',#1603);
#483=VERTEX_POINT('',#1607);
#484=VERTEX_POINT('',#1609);
#485=VERTEX_POINT('',#1615);
#486=VERTEX_POINT('',#1617);
#487=VERTEX_POINT('',#1621);
#488=VERTEX_POINT('',#1623);
#489=EDGE_CURVE('',#409,#409,#357,.T.);
#490=EDGE_CURVE('',#409,#410,#213,.T.);
#491=EDGE_CURVE('',#410,#410,#358,.T.);
#492=EDGE_CURVE('',#411,#411,#359,.T.);
#493=EDGE_CURVE('',#412,#412,#360,.T.);
#494=EDGE_CURVE('',#412,#413,#214,.T.);
#495=EDGE_CURVE('',#413,#413,#361,.T.);
#496=EDGE_CURVE('',#414,#414,#362,.T.);
#497=EDGE_CURVE('',#415,#415,#363,.T.);
#498=EDGE_CURVE('',#415,#416,#215,.T.);
#499=EDGE_CURVE('',#416,#416,#364,.T.);
#500=EDGE_CURVE('',#417,#417,#365,.T.);
#501=EDGE_CURVE('',#418,#418,#366,.T.);
#502=EDGE_CURVE('',#418,#419,#216,.T.);
#503=EDGE_CURVE('',#419,#419,#367,.T.);
#504=EDGE_CURVE('',#420,#420,#368,.T.);
#505=EDGE_CURVE('',#421,#421,#369,.T.);
#506=EDGE_CURVE('',#421,#411,#217,.T.);
#507=EDGE_CURVE('',#422,#422,#370,.T.);
#508=EDGE_CURVE('',#422,#420,#218,.T.);
#509=EDGE_CURVE('',#423,#423,#371,.T.);
#510=EDGE_CURVE('',#423,#417,#219,.T.);
#511=EDGE_CURVE('',#424,#424,#372,.T.);
#512=EDGE_CURVE('',#424,#414,#220,.T.);
#513=EDGE_CURVE('',#425,#426,#221,.T.);
#514=EDGE_CURVE('',#426,#427,#222,.T.);
#515=EDGE_CURVE('',#427,#428,#223,.T.);
#516=EDGE_CURVE('',#428,#425,#224,.T.);
#517=EDGE_CURVE('',#425,#429,#373,.T.);
#518=EDGE_CURVE('',#429,#430,#225,.T.);
#519=EDGE_CURVE('',#430,#426,#374,.T.);
#520=EDGE_CURVE('',#431,#432,#226,.T.);
#521=EDGE_CURVE('',#432,#430,#227,.T.);
#522=EDGE_CURVE('',#429,#431,#228,.T.);
#523=EDGE_CURVE('',#431,#433,#375,.T.);
#524=EDGE_CURVE('',#433,#434,#229,.T.);
#525=EDGE_CURVE('',#434,#432,#376,.T.);
#526=EDGE_CURVE('',#435,#436,#230,.T.);
#527=EDGE_CURVE('',#436,#434,#231,.T.);
#528=EDGE_CURVE('',#433,#435,#232,.T.);
#529=EDGE_CURVE('',#435,#437,#377,.T.);
#530=EDGE_CURVE('',#437,#438,#233,.T.);
#531=EDGE_CURVE('',#438,#436,#378,.T.);
#532=EDGE_CURVE('',#439,#440,#234,.T.);
#533=EDGE_CURVE('',#440,#438,#235,.T.);
#534=EDGE_CURVE('',#437,#439,#236,.T.);
#535=EDGE_CURVE('',#439,#428,#379,.T.);
#536=EDGE_CURVE('',#427,#440,#380,.T.);
#537=EDGE_CURVE('',#431,#441,#237,.T.);
#538=EDGE_CURVE('',#441,#442,#381,.T.);
#539=EDGE_CURVE('',#442,#433,#238,.T.);
#540=EDGE_CURVE('',#443,#429,#239,.T.);
#541=EDGE_CURVE('',#441,#443,#240,.T.);
#542=EDGE_CURVE('',#425,#444,#241,.T.);
#543=EDGE_CURVE('',#444,#443,#382,.T.);
#544=EDGE_CURVE('',#445,#428,#242,.T.);
#545=EDGE_CURVE('',#444,#445,#243,.T.);
#546=EDGE_CURVE('',#446,#445,#383,.T.);
#547=EDGE_CURVE('',#446,#447,#244,.T.);
#548=EDGE_CURVE('',#447,#448,#245,.T.);
#549=EDGE_CURVE('',#448,#449,#246,.T.);
#550=EDGE_CURVE('',#449,#450,#247,.T.);
#551=EDGE_CURVE('',#450,#451,#248,.T.);
#552=EDGE_CURVE('',#451,#452,#249,.T.);
#553=EDGE_CURVE('',#452,#453,#250,.T.);
#554=EDGE_CURVE('',#453,#454,#251,.T.);
#555=EDGE_CURVE('',#454,#455,#252,.T.);
#556=EDGE_CURVE('',#456,#455,#384,.T.);
#557=EDGE_CURVE('',#456,#442,#253,.T.);
#558=EDGE_CURVE('',#439,#446,#254,.T.);
#559=EDGE_CURVE('',#435,#456,#255,.T.);
#560=EDGE_CURVE('',#455,#437,#256,.T.);
#561=EDGE_CURVE('',#457,#447,#385,.T.);
#562=EDGE_CURVE('',#457,#458,#257,.T.);
#563=EDGE_CURVE('',#448,#458,#386,.T.);
#564=EDGE_CURVE('',#459,#457,#258,.T.);
#565=EDGE_CURVE('',#459,#460,#259,.T.);
#566=EDGE_CURVE('',#458,#460,#260,.T.);
#567=EDGE_CURVE('',#461,#459,#387,.T.);
#568=EDGE_CURVE('',#461,#462,#261,.T.);
#569=EDGE_CURVE('',#460,#462,#388,.T.);
#570=EDGE_CURVE('',#463,#461,#262,.T.);
#571=EDGE_CURVE('',#463,#464,#263,.T.);
#572=EDGE_CURVE('',#462,#464,#264,.T.);
#573=EDGE_CURVE('',#465,#463,#389,.T.);
#574=EDGE_CURVE('',#465,#466,#265,.T.);
#575=EDGE_CURVE('',#464,#466,#390,.T.);
#576=EDGE_CURVE('',#467,#465,#266,.T.);
#577=EDGE_CURVE('',#467,#468,#267,.T.);
#578=EDGE_CURVE('',#466,#468,#268,.T.);
#579=EDGE_CURVE('',#454,#467,#391,.T.);
#580=EDGE_CURVE('',#468,#453,#392,.T.);
#581=EDGE_CURVE('',#469,#452,#269,.T.);
#582=EDGE_CURVE('',#470,#469,#270,.T.);
#583=EDGE_CURVE('',#470,#449,#271,.T.);
#584=EDGE_CURVE('',#471,#472,#272,.T.);
#585=EDGE_CURVE('',#471,#451,#273,.T.);
#586=EDGE_CURVE('',#472,#450,#274,.T.);
#587=EDGE_CURVE('',#472,#470,#275,.T.);
#588=EDGE_CURVE('',#469,#471,#276,.T.);
#589=EDGE_CURVE('',#473,#473,#393,.T.);
#590=EDGE_CURVE('',#473,#474,#277,.T.);
#591=EDGE_CURVE('',#474,#474,#394,.T.);
#592=EDGE_CURVE('',#475,#475,#395,.T.);
#593=EDGE_CURVE('',#475,#476,#278,.T.);
#594=EDGE_CURVE('',#476,#476,#396,.T.);
#595=EDGE_CURVE('',#477,#477,#397,.T.);
#596=EDGE_CURVE('',#477,#478,#279,.T.);
#597=EDGE_CURVE('',#478,#478,#398,.T.);
#598=EDGE_CURVE('',#479,#479,#399,.T.);
#599=EDGE_CURVE('',#479,#480,#280,.T.);
#600=EDGE_CURVE('',#480,#480,#400,.T.);
#601=EDGE_CURVE('',#481,#481,#401,.T.);
#602=EDGE_CURVE('',#481,#482,#281,.T.);
#603=EDGE_CURVE('',#482,#482,#402,.T.);
#604=EDGE_CURVE('',#483,#483,#403,.T.);
#605=EDGE_CURVE('',#483,#484,#282,.T.);
#606=EDGE_CURVE('',#484,#484,#404,.T.);
#607=EDGE_CURVE('',#485,#485,#405,.T.);
#608=EDGE_CURVE('',#485,#486,#283,.T.);
#609=EDGE_CURVE('',#486,#486,#406,.T.);
#610=EDGE_CURVE('',#487,#487,#407,.T.);
#611=EDGE_CURVE('',#487,#488,#284,.T.);
#612=EDGE_CURVE('',#488,#488,#408,.T.);
#613=ORIENTED_EDGE('',*,*,#489,.F.);
#614=ORIENTED_EDGE('',*,*,#490,.T.);
#615=ORIENTED_EDGE('',*,*,#491,.T.);
#616=ORIENTED_EDGE('',*,*,#490,.F.);
#617=ORIENTED_EDGE('',*,*,#491,.F.);
#618=ORIENTED_EDGE('',*,*,#492,.F.);
#619=ORIENTED_EDGE('',*,*,#493,.F.);
#620=ORIENTED_EDGE('',*,*,#494,.T.);
#621=ORIENTED_EDGE('',*,*,#495,.T.);
#622=ORIENTED_EDGE('',*,*,#494,.F.);
#623=ORIENTED_EDGE('',*,*,#495,.F.);
#624=ORIENTED_EDGE('',*,*,#496,.F.);
#625=ORIENTED_EDGE('',*,*,#497,.F.);
#626=ORIENTED_EDGE('',*,*,#498,.T.);
#627=ORIENTED_EDGE('',*,*,#499,.T.);
#628=ORIENTED_EDGE('',*,*,#498,.F.);
#629=ORIENTED_EDGE('',*,*,#499,.F.);
#630=ORIENTED_EDGE('',*,*,#500,.F.);
#631=ORIENTED_EDGE('',*,*,#501,.F.);
#632=ORIENTED_EDGE('',*,*,#502,.T.);
#633=ORIENTED_EDGE('',*,*,#503,.T.);
#634=ORIENTED_EDGE('',*,*,#502,.F.);
#635=ORIENTED_EDGE('',*,*,#503,.F.);
#636=ORIENTED_EDGE('',*,*,#504,.F.);
#637=ORIENTED_EDGE('',*,*,#505,.F.);
#638=ORIENTED_EDGE('',*,*,#506,.T.);
#639=ORIENTED_EDGE('',*,*,#492,.T.);
#640=ORIENTED_EDGE('',*,*,#506,.F.);
#641=ORIENTED_EDGE('',*,*,#507,.F.);
#642=ORIENTED_EDGE('',*,*,#508,.T.);
#643=ORIENTED_EDGE('',*,*,#504,.T.);
#644=ORIENTED_EDGE('',*,*,#508,.F.);
#645=ORIENTED_EDGE('',*,*,#509,.F.);
#646=ORIENTED_EDGE('',*,*,#510,.T.);
#647=ORIENTED_EDGE('',*,*,#500,.T.);
#648=ORIENTED_EDGE('',*,*,#510,.F.);
#649=ORIENTED_EDGE('',*,*,#511,.F.);
#650=ORIENTED_EDGE('',*,*,#512,.T.);
#651=ORIENTED_EDGE('',*,*,#496,.T.);
#652=ORIENTED_EDGE('',*,*,#512,.F.);
#653=ORIENTED_EDGE('',*,*,#513,.T.);
#654=ORIENTED_EDGE('',*,*,#514,.T.);
#655=ORIENTED_EDGE('',*,*,#515,.T.);
#656=ORIENTED_EDGE('',*,*,#516,.T.);
#657=ORIENTED_EDGE('',*,*,#513,.F.);
#658=ORIENTED_EDGE('',*,*,#517,.T.);
#659=ORIENTED_EDGE('',*,*,#518,.T.);
#660=ORIENTED_EDGE('',*,*,#519,.T.);
#661=ORIENTED_EDGE('',*,*,#520,.T.);
#662=ORIENTED_EDGE('',*,*,#521,.T.);
#663=ORIENTED_EDGE('',*,*,#518,.F.);
#664=ORIENTED_EDGE('',*,*,#522,.T.);
#665=ORIENTED_EDGE('',*,*,#520,.F.);
#666=ORIENTED_EDGE('',*,*,#523,.T.);
#667=ORIENTED_EDGE('',*,*,#524,.T.);
#668=ORIENTED_EDGE('',*,*,#525,.T.);
#669=ORIENTED_EDGE('',*,*,#526,.T.);
#670=ORIENTED_EDGE('',*,*,#527,.T.);
#671=ORIENTED_EDGE('',*,*,#524,.F.);
#672=ORIENTED_EDGE('',*,*,#528,.T.);
#673=ORIENTED_EDGE('',*,*,#526,.F.);
#674=ORIENTED_EDGE('',*,*,#529,.T.);
#675=ORIENTED_EDGE('',*,*,#530,.T.);
#676=ORIENTED_EDGE('',*,*,#531,.T.);
#677=ORIENTED_EDGE('',*,*,#532,.T.);
#678=ORIENTED_EDGE('',*,*,#533,.T.);
#679=ORIENTED_EDGE('',*,*,#530,.F.);
#680=ORIENTED_EDGE('',*,*,#534,.T.);
#681=ORIENTED_EDGE('',*,*,#532,.F.);
#682=ORIENTED_EDGE('',*,*,#535,.T.);
#683=ORIENTED_EDGE('',*,*,#515,.F.);
#684=ORIENTED_EDGE('',*,*,#536,.T.);
#685=ORIENTED_EDGE('',*,*,#523,.F.);
#686=ORIENTED_EDGE('',*,*,#537,.T.);
#687=ORIENTED_EDGE('',*,*,#538,.T.);
#688=ORIENTED_EDGE('',*,*,#539,.T.);
#689=ORIENTED_EDGE('',*,*,#522,.F.);
#690=ORIENTED_EDGE('',*,*,#540,.F.);
#691=ORIENTED_EDGE('',*,*,#541,.F.);
#692=ORIENTED_EDGE('',*,*,#537,.F.);
#693=ORIENTED_EDGE('',*,*,#517,.F.);
#694=ORIENTED_EDGE('',*,*,#542,.T.);
#695=ORIENTED_EDGE('',*,*,#543,.T.);
#696=ORIENTED_EDGE('',*,*,#540,.T.);
#697=ORIENTED_EDGE('',*,*,#516,.F.);
#698=ORIENTED_EDGE('',*,*,#544,.F.);
#699=ORIENTED_EDGE('',*,*,#545,.F.);
#700=ORIENTED_EDGE('',*,*,#542,.F.);
#701=ORIENTED_EDGE('',*,*,#514,.F.);
#702=ORIENTED_EDGE('',*,*,#519,.F.);
#703=ORIENTED_EDGE('',*,*,#521,.F.);
#704=ORIENTED_EDGE('',*,*,#525,.F.);
#705=ORIENTED_EDGE('',*,*,#527,.F.);
#706=ORIENTED_EDGE('',*,*,#531,.F.);
#707=ORIENTED_EDGE('',*,*,#533,.F.);
#708=ORIENTED_EDGE('',*,*,#536,.F.);
#709=ORIENTED_EDGE('',*,*,#501,.T.);
#710=ORIENTED_EDGE('',*,*,#497,.T.);
#711=ORIENTED_EDGE('',*,*,#493,.T.);
#712=ORIENTED_EDGE('',*,*,#489,.T.);
#713=ORIENTED_EDGE('',*,*,#543,.F.);
#714=ORIENTED_EDGE('',*,*,#545,.T.);
#715=ORIENTED_EDGE('',*,*,#546,.F.);
#716=ORIENTED_EDGE('',*,*,#547,.T.);
#717=ORIENTED_EDGE('',*,*,#548,.T.);
#718=ORIENTED_EDGE('',*,*,#549,.T.);
#719=ORIENTED_EDGE('',*,*,#550,.T.);
#720=ORIENTED_EDGE('',*,*,#551,.T.);
#721=ORIENTED_EDGE('',*,*,#552,.T.);
#722=ORIENTED_EDGE('',*,*,#553,.T.);
#723=ORIENTED_EDGE('',*,*,#554,.T.);
#724=ORIENTED_EDGE('',*,*,#555,.T.);
#725=ORIENTED_EDGE('',*,*,#556,.F.);
#726=ORIENTED_EDGE('',*,*,#557,.T.);
#727=ORIENTED_EDGE('',*,*,#538,.F.);
#728=ORIENTED_EDGE('',*,*,#541,.T.);
#729=ORIENTED_EDGE('',*,*,#535,.F.);
#730=ORIENTED_EDGE('',*,*,#558,.T.);
#731=ORIENTED_EDGE('',*,*,#546,.T.);
#732=ORIENTED_EDGE('',*,*,#544,.T.);
#733=ORIENTED_EDGE('',*,*,#529,.F.);
#734=ORIENTED_EDGE('',*,*,#559,.T.);
#735=ORIENTED_EDGE('',*,*,#556,.T.);
#736=ORIENTED_EDGE('',*,*,#560,.T.);
#737=ORIENTED_EDGE('',*,*,#528,.F.);
#738=ORIENTED_EDGE('',*,*,#539,.F.);
#739=ORIENTED_EDGE('',*,*,#557,.F.);
#740=ORIENTED_EDGE('',*,*,#559,.F.);
#741=ORIENTED_EDGE('',*,*,#561,.F.);
#742=ORIENTED_EDGE('',*,*,#562,.T.);
#743=ORIENTED_EDGE('',*,*,#563,.F.);
#744=ORIENTED_EDGE('',*,*,#548,.F.);
#745=ORIENTED_EDGE('',*,*,#564,.F.);
#746=ORIENTED_EDGE('',*,*,#565,.T.);
#747=ORIENTED_EDGE('',*,*,#566,.F.);
#748=ORIENTED_EDGE('',*,*,#562,.F.);
#749=ORIENTED_EDGE('',*,*,#567,.F.);
#750=ORIENTED_EDGE('',*,*,#568,.T.);
#751=ORIENTED_EDGE('',*,*,#569,.F.);
#752=ORIENTED_EDGE('',*,*,#565,.F.);
#753=ORIENTED_EDGE('',*,*,#570,.F.);
#754=ORIENTED_EDGE('',*,*,#571,.T.);
#755=ORIENTED_EDGE('',*,*,#572,.F.);
#756=ORIENTED_EDGE('',*,*,#568,.F.);
#757=ORIENTED_EDGE('',*,*,#573,.F.);
#758=ORIENTED_EDGE('',*,*,#574,.T.);
#759=ORIENTED_EDGE('',*,*,#575,.F.);
#760=ORIENTED_EDGE('',*,*,#571,.F.);
#761=ORIENTED_EDGE('',*,*,#576,.F.);
#762=ORIENTED_EDGE('',*,*,#577,.T.);
#763=ORIENTED_EDGE('',*,*,#578,.F.);
#764=ORIENTED_EDGE('',*,*,#574,.F.);
#765=ORIENTED_EDGE('',*,*,#579,.F.);
#766=ORIENTED_EDGE('',*,*,#554,.F.);
#767=ORIENTED_EDGE('',*,*,#580,.F.);
#768=ORIENTED_EDGE('',*,*,#577,.F.);
#769=ORIENTED_EDGE('',*,*,#563,.T.);
#770=ORIENTED_EDGE('',*,*,#566,.T.);
#771=ORIENTED_EDGE('',*,*,#569,.T.);
#772=ORIENTED_EDGE('',*,*,#572,.T.);
#773=ORIENTED_EDGE('',*,*,#575,.T.);
#774=ORIENTED_EDGE('',*,*,#578,.T.);
#775=ORIENTED_EDGE('',*,*,#580,.T.);
#776=ORIENTED_EDGE('',*,*,#553,.F.);
#777=ORIENTED_EDGE('',*,*,#581,.F.);
#778=ORIENTED_EDGE('',*,*,#582,.F.);
#779=ORIENTED_EDGE('',*,*,#583,.T.);
#780=ORIENTED_EDGE('',*,*,#549,.F.);
#781=ORIENTED_EDGE('',*,*,#534,.F.);
#782=ORIENTED_EDGE('',*,*,#560,.F.);
#783=ORIENTED_EDGE('',*,*,#555,.F.);
#784=ORIENTED_EDGE('',*,*,#579,.T.);
#785=ORIENTED_EDGE('',*,*,#576,.T.);
#786=ORIENTED_EDGE('',*,*,#573,.T.);
#787=ORIENTED_EDGE('',*,*,#570,.T.);
#788=ORIENTED_EDGE('',*,*,#567,.T.);
#789=ORIENTED_EDGE('',*,*,#564,.T.);
#790=ORIENTED_EDGE('',*,*,#561,.T.);
#791=ORIENTED_EDGE('',*,*,#547,.F.);
#792=ORIENTED_EDGE('',*,*,#558,.F.);
#793=ORIENTED_EDGE('',*,*,#584,.F.);
#794=ORIENTED_EDGE('',*,*,#585,.T.);
#795=ORIENTED_EDGE('',*,*,#551,.F.);
#796=ORIENTED_EDGE('',*,*,#586,.F.);
#797=ORIENTED_EDGE('',*,*,#587,.F.);
#798=ORIENTED_EDGE('',*,*,#586,.T.);
#799=ORIENTED_EDGE('',*,*,#550,.F.);
#800=ORIENTED_EDGE('',*,*,#583,.F.);
#801=ORIENTED_EDGE('',*,*,#588,.F.);
#802=ORIENTED_EDGE('',*,*,#581,.T.);
#803=ORIENTED_EDGE('',*,*,#552,.F.);
#804=ORIENTED_EDGE('',*,*,#585,.F.);
#805=ORIENTED_EDGE('',*,*,#584,.T.);
#806=ORIENTED_EDGE('',*,*,#587,.T.);
#807=ORIENTED_EDGE('',*,*,#582,.T.);
#808=ORIENTED_EDGE('',*,*,#588,.T.);
#809=ORIENTED_EDGE('',*,*,#505,.T.);
#810=ORIENTED_EDGE('',*,*,#507,.T.);
#811=ORIENTED_EDGE('',*,*,#509,.T.);
#812=ORIENTED_EDGE('',*,*,#511,.T.);
#813=ORIENTED_EDGE('',*,*,#589,.F.);
#814=ORIENTED_EDGE('',*,*,#590,.T.);
#815=ORIENTED_EDGE('',*,*,#591,.T.);
#816=ORIENTED_EDGE('',*,*,#590,.F.);
#817=ORIENTED_EDGE('',*,*,#592,.F.);
#818=ORIENTED_EDGE('',*,*,#593,.T.);
#819=ORIENTED_EDGE('',*,*,#594,.T.);
#820=ORIENTED_EDGE('',*,*,#593,.F.);
#821=ORIENTED_EDGE('',*,*,#592,.T.);
#822=ORIENTED_EDGE('',*,*,#589,.T.);
#823=ORIENTED_EDGE('',*,*,#594,.F.);
#824=ORIENTED_EDGE('',*,*,#591,.F.);
#825=ORIENTED_EDGE('',*,*,#595,.F.);
#826=ORIENTED_EDGE('',*,*,#596,.T.);
#827=ORIENTED_EDGE('',*,*,#597,.T.);
#828=ORIENTED_EDGE('',*,*,#596,.F.);
#829=ORIENTED_EDGE('',*,*,#598,.F.);
#830=ORIENTED_EDGE('',*,*,#599,.T.);
#831=ORIENTED_EDGE('',*,*,#600,.T.);
#832=ORIENTED_EDGE('',*,*,#599,.F.);
#833=ORIENTED_EDGE('',*,*,#598,.T.);
#834=ORIENTED_EDGE('',*,*,#595,.T.);
#835=ORIENTED_EDGE('',*,*,#600,.F.);
#836=ORIENTED_EDGE('',*,*,#597,.F.);
#837=ORIENTED_EDGE('',*,*,#601,.F.);
#838=ORIENTED_EDGE('',*,*,#602,.T.);
#839=ORIENTED_EDGE('',*,*,#603,.T.);
#840=ORIENTED_EDGE('',*,*,#602,.F.);
#841=ORIENTED_EDGE('',*,*,#604,.F.);
#842=ORIENTED_EDGE('',*,*,#605,.T.);
#843=ORIENTED_EDGE('',*,*,#606,.T.);
#844=ORIENTED_EDGE('',*,*,#605,.F.);
#845=ORIENTED_EDGE('',*,*,#604,.T.);
#846=ORIENTED_EDGE('',*,*,#601,.T.);
#847=ORIENTED_EDGE('',*,*,#606,.F.);
#848=ORIENTED_EDGE('',*,*,#603,.F.);
#849=ORIENTED_EDGE('',*,*,#607,.F.);
#850=ORIENTED_EDGE('',*,*,#608,.T.);
#851=ORIENTED_EDGE('',*,*,#609,.T.);
#852=ORIENTED_EDGE('',*,*,#608,.F.);
#853=ORIENTED_EDGE('',*,*,#610,.F.);
#854=ORIENTED_EDGE('',*,*,#611,.T.);
#855=ORIENTED_EDGE('',*,*,#612,.T.);
#856=ORIENTED_EDGE('',*,*,#611,.F.);
#857=ORIENTED_EDGE('',*,*,#610,.T.);
#858=ORIENTED_EDGE('',*,*,#607,.T.);
#859=ORIENTED_EDGE('',*,*,#612,.F.);
#860=ORIENTED_EDGE('',*,*,#609,.F.);
#861=CYLINDRICAL_SURFACE('',#961,3.25);
#862=CYLINDRICAL_SURFACE('',#966,3.25);
#863=CYLINDRICAL_SURFACE('',#971,3.25);
#864=CYLINDRICAL_SURFACE('',#976,3.25);
#865=CYLINDRICAL_SURFACE('',#981,1.6);
#866=CYLINDRICAL_SURFACE('',#983,1.6);
#867=CYLINDRICAL_SURFACE('',#985,1.6);
#868=CYLINDRICAL_SURFACE('',#987,1.6);
#869=CYLINDRICAL_SURFACE('',#1005,2.);
#870=CYLINDRICAL_SURFACE('',#1008,2.);
#871=CYLINDRICAL_SURFACE('',#1015,2.);
#872=CYLINDRICAL_SURFACE('',#1016,2.);
#873=CYLINDRICAL_SURFACE('',#1018,1.1);
#874=CYLINDRICAL_SURFACE('',#1022,1.1);
#875=CYLINDRICAL_SURFACE('',#1026,1.1);
#876=CYLINDRICAL_SURFACE('',#1030,1.1);
#877=CYLINDRICAL_SURFACE('',#1039,1.6);
#878=CYLINDRICAL_SURFACE('',#1042,3.1);
#879=CYLINDRICAL_SURFACE('',#1047,1.6);
#880=CYLINDRICAL_SURFACE('',#1050,3.1);
#881=CYLINDRICAL_SURFACE('',#1055,1.6);
#882=CYLINDRICAL_SURFACE('',#1058,3.1);
#883=CYLINDRICAL_SURFACE('',#1063,1.6);
#884=CYLINDRICAL_SURFACE('',#1066,3.1);
#885=ADVANCED_FACE('',(#77),#861,.F.);
#886=ADVANCED_FACE('',(#78,#27),#47,.T.);
#887=ADVANCED_FACE('',(#79),#862,.F.);
#888=ADVANCED_FACE('',(#80,#28),#48,.T.);
#889=ADVANCED_FACE('',(#81),#863,.F.);
#890=ADVANCED_FACE('',(#82,#29),#49,.T.);
#891=ADVANCED_FACE('',(#83),#864,.F.);
#892=ADVANCED_FACE('',(#84,#30),#50,.T.);
#893=ADVANCED_FACE('',(#85),#865,.F.);
#894=ADVANCED_FACE('',(#86),#866,.F.);
#895=ADVANCED_FACE('',(#87),#867,.F.);
#896=ADVANCED_FACE('',(#88),#868,.F.);
#897=ADVANCED_FACE('',(#89),#51,.T.);
#898=ADVANCED_FACE('',(#90),#23,.T.);
#899=ADVANCED_FACE('',(#91),#52,.T.);
#900=ADVANCED_FACE('',(#92),#24,.T.);
#901=ADVANCED_FACE('',(#93),#53,.T.);
#902=ADVANCED_FACE('',(#94),#25,.T.);
#903=ADVANCED_FACE('',(#95),#54,.T.);
#904=ADVANCED_FACE('',(#96),#26,.T.);
#905=ADVANCED_FACE('',(#97),#869,.T.);
#906=ADVANCED_FACE('',(#98),#55,.T.);
#907=ADVANCED_FACE('',(#99),#870,.T.);
#908=ADVANCED_FACE('',(#100),#56,.T.);
#909=ADVANCED_FACE('',(#101,#31,#32,#33,#34),#57,.T.);
#910=ADVANCED_FACE('',(#102),#58,.T.);
#911=ADVANCED_FACE('',(#103),#871,.T.);
#912=ADVANCED_FACE('',(#104),#872,.T.);
#913=ADVANCED_FACE('',(#105),#59,.T.);
#914=ADVANCED_FACE('',(#106),#873,.F.);
#915=ADVANCED_FACE('',(#107),#60,.F.);
#916=ADVANCED_FACE('',(#108),#874,.F.);
#917=ADVANCED_FACE('',(#109),#61,.F.);
#918=ADVANCED_FACE('',(#110),#875,.F.);
#919=ADVANCED_FACE('',(#111),#62,.F.);
#920=ADVANCED_FACE('',(#112),#876,.F.);
#921=ADVANCED_FACE('',(#113),#63,.T.);
#922=ADVANCED_FACE('',(#114),#64,.T.);
#923=ADVANCED_FACE('',(#115),#65,.T.);
#924=ADVANCED_FACE('',(#116),#66,.T.);
#925=ADVANCED_FACE('',(#117),#67,.T.);
#926=ADVANCED_FACE('',(#118,#35,#36,#37,#38),#68,.T.);
#927=ADVANCED_FACE('',(#119),#877,.F.);
#928=ADVANCED_FACE('',(#120),#878,.T.);
#929=ADVANCED_FACE('',(#121,#39),#69,.T.);
#930=ADVANCED_FACE('',(#122,#40),#70,.F.);
#931=ADVANCED_FACE('',(#123),#879,.F.);
#932=ADVANCED_FACE('',(#124),#880,.T.);
#933=ADVANCED_FACE('',(#125,#41),#71,.T.);
#934=ADVANCED_FACE('',(#126,#42),#72,.F.);
#935=ADVANCED_FACE('',(#127),#881,.F.);
#936=ADVANCED_FACE('',(#128),#882,.T.);
#937=ADVANCED_FACE('',(#129,#43),#73,.T.);
#938=ADVANCED_FACE('',(#130,#44),#74,.F.);
#939=ADVANCED_FACE('',(#131),#883,.F.);
#940=ADVANCED_FACE('',(#132),#884,.T.);
#941=ADVANCED_FACE('',(#133,#45),#75,.T.);
#942=ADVANCED_FACE('',(#134,#46),#76,.F.);
#943=CLOSED_SHELL('',(#885,#886,#887,#888,#889,#890,#891,#892,#893,#894,
#895,#896,#897,#898,#899,#900,#901,#902,#903,#904,#905,#906,#907,#908,#909,
#910,#911,#912,#913,#914,#915,#916,#917,#918,#919,#920,#921,#922,#923,#924,
#925,#926));
#944=CLOSED_SHELL('',(#927,#928,#929,#930));
#945=CLOSED_SHELL('',(#931,#932,#933,#934));
#946=CLOSED_SHELL('',(#935,#936,#937,#938));
#947=CLOSED_SHELL('',(#939,#940,#941,#942));
#948=DERIVED_UNIT_ELEMENT(#950,1.);
#949=DERIVED_UNIT_ELEMENT(#1633,-3.);
#950=(
MASS_UNIT()
NAMED_UNIT(*)
SI_UNIT(.KILO.,.GRAM.)
);
#951=DERIVED_UNIT((#948,#949));
#952=MEASURE_REPRESENTATION_ITEM('density measure',
POSITIVE_RATIO_MEASURE(7850.),#951);
#953=PROPERTY_DEFINITION_REPRESENTATION(#958,#955);
#954=PROPERTY_DEFINITION_REPRESENTATION(#959,#956);
#955=REPRESENTATION('material name',(#957),#1630);
#956=REPRESENTATION('density',(#952),#1630);
#957=DESCRIPTIVE_REPRESENTATION_ITEM('Steel','Steel');
#958=PROPERTY_DEFINITION('material property','material name',#1640);
#959=PROPERTY_DEFINITION('material property','density of part',#1640);
#960=AXIS2_PLACEMENT_3D('',#1365,#1071,#1072);
#961=AXIS2_PLACEMENT_3D('',#1366,#1073,#1074);
#962=AXIS2_PLACEMENT_3D('',#1368,#1075,#1076);
#963=AXIS2_PLACEMENT_3D('',#1371,#1078,#1079);
#964=AXIS2_PLACEMENT_3D('',#1372,#1080,#1081);
#965=AXIS2_PLACEMENT_3D('',#1374,#1082,#1083);
#966=AXIS2_PLACEMENT_3D('',#1375,#1084,#1085);
#967=AXIS2_PLACEMENT_3D('',#1377,#1086,#1087);
#968=AXIS2_PLACEMENT_3D('',#1380,#1089,#1090);
#969=AXIS2_PLACEMENT_3D('',#1381,#1091,#1092);
#970=AXIS2_PLACEMENT_3D('',#1383,#1093,#1094);
#971=AXIS2_PLACEMENT_3D('',#1384,#1095,#1096);
#972=AXIS2_PLACEMENT_3D('',#1386,#1097,#1098);
#973=AXIS2_PLACEMENT_3D('',#1389,#1100,#1101);
#974=AXIS2_PLACEMENT_3D('',#1390,#1102,#1103);
#975=AXIS2_PLACEMENT_3D('',#1392,#1104,#1105);
#976=AXIS2_PLACEMENT_3D('',#1393,#1106,#1107);
#977=AXIS2_PLACEMENT_3D('',#1395,#1108,#1109);
#978=AXIS2_PLACEMENT_3D('',#1398,#1111,#1112);
#979=AXIS2_PLACEMENT_3D('',#1399,#1113,#1114);
#980=AXIS2_PLACEMENT_3D('',#1401,#1115,#1116);
#981=AXIS2_PLACEMENT_3D('',#1402,#1117,#1118);
#982=AXIS2_PLACEMENT_3D('',#1404,#1119,#1120);
#983=AXIS2_PLACEMENT_3D('',#1406,#1122,#1123);
#984=AXIS2_PLACEMENT_3D('',#1408,#1124,#1125);
#985=AXIS2_PLACEMENT_3D('',#1410,#1127,#1128);
#986=AXIS2_PLACEMENT_3D('',#1412,#1129,#1130);
#987=AXIS2_PLACEMENT_3D('',#1414,#1132,#1133);
#988=AXIS2_PLACEMENT_3D('',#1416,#1134,#1135);
#989=AXIS2_PLACEMENT_3D('',#1418,#1137,#1138);
#990=AXIS2_PLACEMENT_3D('',#1427,#1143,#1144);
#991=AXIS2_PLACEMENT_3D('',#1429,#1145,#1146);
#992=AXIS2_PLACEMENT_3D('',#1432,#1148,#1149);
#993=AXIS2_PLACEMENT_3D('',#1433,#1150,#1151);
#994=AXIS2_PLACEMENT_3D('',#1439,#1155,#1156);
#995=AXIS2_PLACEMENT_3D('',#1441,#1157,#1158);
#996=AXIS2_PLACEMENT_3D('',#1444,#1160,#1161);
#997=AXIS2_PLACEMENT_3D('',#1445,#1162,#1163);
#998=AXIS2_PLACEMENT_3D('',#1451,#1167,#1168);
#999=AXIS2_PLACEMENT_3D('',#1453,#1169,#1170);
#1000=AXIS2_PLACEMENT_3D('',#1456,#1172,#1173);
#1001=AXIS2_PLACEMENT_3D('',#1457,#1174,#1175);
#1002=AXIS2_PLACEMENT_3D('',#1463,#1179,#1180);
#1003=AXIS2_PLACEMENT_3D('',#1464,#1181,#1182);
#1004=AXIS2_PLACEMENT_3D('',#1465,#1183,#1184);
#1005=AXIS2_PLACEMENT_3D('',#1466,#1185,#1186);
#1006=AXIS2_PLACEMENT_3D('',#1470,#1188,#1189);
#1007=AXIS2_PLACEMENT_3D('',#1472,#1191,#1192);
#1008=AXIS2_PLACEMENT_3D('',#1476,#1195,#1196);
#1009=AXIS2_PLACEMENT_3D('',#1479,#1198,#1199);
#1010=AXIS2_PLACEMENT_3D('',#1480,#1200,#1201);
#1011=AXIS2_PLACEMENT_3D('',#1484,#1204,#1205);
#1012=AXIS2_PLACEMENT_3D('',#1485,#1206,#1207);
#1013=AXIS2_PLACEMENT_3D('',#1487,#1208,#1209);
#1014=AXIS2_PLACEMENT_3D('',#1507,#1219,#1220);
#1015=AXIS2_PLACEMENT_3D('',#1509,#1222,#1223);
#1016=AXIS2_PLACEMENT_3D('',#1511,#1225,#1226);
#1017=AXIS2_PLACEMENT_3D('',#1514,#1229,#1230);
#1018=AXIS2_PLACEMENT_3D('',#1515,#1231,#1232);
#1019=AXIS2_PLACEMENT_3D('',#1517,#1233,#1234);
#1020=AXIS2_PLACEMENT_3D('',#1520,#1236,#1237);
#1021=AXIS2_PLACEMENT_3D('',#1521,#1238,#1239);
#1022=AXIS2_PLACEMENT_3D('',#1527,#1243,#1244);
#1023=AXIS2_PLACEMENT_3D('',#1529,#1245,#1246);
#1024=AXIS2_PLACEMENT_3D('',#1532,#1248,#1249);
#1025=AXIS2_PLACEMENT_3D('',#1533,#1250,#1251);
#1026=AXIS2_PLACEMENT_3D('',#1539,#1255,#1256);
#1027=AXIS2_PLACEMENT_3D('',#1541,#1257,#1258);
#1028=AXIS2_PLACEMENT_3D('',#1544,#1260,#1261);
#1029=AXIS2_PLACEMENT_3D('',#1545,#1262,#1263);
#1030=AXIS2_PLACEMENT_3D('',#1551,#1267,#1268);
#1031=AXIS2_PLACEMENT_3D('',#1552,#1269,#1270);
#1032=AXIS2_PLACEMENT_3D('',#1553,#1271,#1272);
#1033=AXIS2_PLACEMENT_3D('',#1554,#1273,#1274);
#1034=AXIS2_PLACEMENT_3D('',#1560,#1278,#1279);
#1035=AXIS2_PLACEMENT_3D('',#1561,#1280,#1281);
#1036=AXIS2_PLACEMENT_3D('',#1567,#1285,#1286);
#1037=AXIS2_PLACEMENT_3D('',#1569,#1288,#1289);
#1038=AXIS2_PLACEMENT_3D('',#1571,#1291,#1292);
#1039=AXIS2_PLACEMENT_3D('',#1572,#1293,#1294);
#1040=AXIS2_PLACEMENT_3D('',#1574,#1295,#1296);
#1041=AXIS2_PLACEMENT_3D('',#1577,#1298,#1299);
#1042=AXIS2_PLACEMENT_3D('',#1578,#1300,#1301);
#1043=AXIS2_PLACEMENT_3D('',#1580,#1302,#1303);
#1044=AXIS2_PLACEMENT_3D('',#1583,#1305,#1306);
#1045=AXIS2_PLACEMENT_3D('',#1584,#1307,#1308);
#1046=AXIS2_PLACEMENT_3D('',#1585,#1309,#1310);
#1047=AXIS2_PLACEMENT_3D('',#1586,#1311,#1312);
#1048=AXIS2_PLACEMENT_3D('',#1588,#1313,#1314);
#1049=AXIS2_PLACEMENT_3D('',#1591,#1316,#1317);
#1050=AXIS2_PLACEMENT_3D('',#1592,#1318,#1319);
#1051=AXIS2_PLACEMENT_3D('',#1594,#1320,#1321);
#1052=AXIS2_PLACEMENT_3D('',#1597,#1323,#1324);
#1053=AXIS2_PLACEMENT_3D('',#1598,#1325,#1326);
#1054=AXIS2_PLACEMENT_3D('',#1599,#1327,#1328);
#1055=AXIS2_PLACEMENT_3D('',#1600,#1329,#1330);
#1056=AXIS2_PLACEMENT_3D('',#1602,#1331,#1332);
#1057=AXIS2_PLACEMENT_3D('',#1605,#1334,#1335);
#1058=AXIS2_PLACEMENT_3D('',#1606,#1336,#1337);
#1059=AXIS2_PLACEMENT_3D('',#1608,#1338,#1339);
#1060=AXIS2_PLACEMENT_3D('',#1611,#1341,#1342);
#1061=AXIS2_PLACEMENT_3D('',#1612,#1343,#1344);
#1062=AXIS2_PLACEMENT_3D('',#1613,#1345,#1346);
#1063=AXIS2_PLACEMENT_3D('',#1614,#1347,#1348);
#1064=AXIS2_PLACEMENT_3D('',#1616,#1349,#1350);
#1065=AXIS2_PLACEMENT_3D('',#1619,#1352,#1353);
#1066=AXIS2_PLACEMENT_3D('',#1620,#1354,#1355);
#1067=AXIS2_PLACEMENT_3D('',#1622,#1356,#1357);
#1068=AXIS2_PLACEMENT_3D('',#1625,#1359,#1360);
#1069=AXIS2_PLACEMENT_3D('',#1626,#1361,#1362);
#1070=AXIS2_PLACEMENT_3D('',#1627,#1363,#1364);
#1071=DIRECTION('axis',(0.,0.,1.));
#1072=DIRECTION('refdir',(1.,0.,0.));
#1073=DIRECTION('center_axis',(0.,0.,1.));
#1074=DIRECTION('ref_axis',(1.,0.,0.));
#1075=DIRECTION('center_axis',(0.,0.,1.));
#1076=DIRECTION('ref_axis',(1.,0.,0.));
#1077=DIRECTION('',(0.,0.,1.));
#1078=DIRECTION('center_axis',(0.,0.,1.));
#1079=DIRECTION('ref_axis',(1.,0.,0.));
#1080=DIRECTION('center_axis',(0.,0.,-1.));
#1081=DIRECTION('ref_axis',(1.,0.,0.));
#1082=DIRECTION('center_axis',(0.,0.,-1.));
#1083=DIRECTION('ref_axis',(1.,0.,0.));
#1084=DIRECTION('center_axis',(0.,0.,1.));
#1085=DIRECTION('ref_axis',(1.,0.,0.));
#1086=DIRECTION('center_axis',(0.,0.,1.));
#1087=DIRECTION('ref_axis',(1.,0.,0.));
#1088=DIRECTION('',(0.,0.,1.));
#1089=DIRECTION('center_axis',(0.,0.,1.));
#1090=DIRECTION('ref_axis',(1.,0.,0.));
#1091=DIRECTION('center_axis',(0.,0.,-1.));
#1092=DIRECTION('ref_axis',(1.,0.,0.));
#1093=DIRECTION('center_axis',(0.,0.,-1.));
#1094=DIRECTION('ref_axis',(1.,0.,0.));
#1095=DIRECTION('center_axis',(0.,0.,1.));
#1096=DIRECTION('ref_axis',(1.,0.,0.));
#1097=DIRECTION('center_axis',(0.,0.,1.));
#1098=DIRECTION('ref_axis',(1.,0.,0.));
#1099=DIRECTION('',(0.,0.,1.));
#1100=DIRECTION('center_axis',(0.,0.,1.));
#1101=DIRECTION('ref_axis',(1.,0.,0.));
#1102=DIRECTION('center_axis',(0.,0.,-1.));
#1103=DIRECTION('ref_axis',(1.,0.,0.));
#1104=DIRECTION('center_axis',(0.,0.,-1.));
#1105=DIRECTION('ref_axis',(1.,0.,0.));
#1106=DIRECTION('center_axis',(0.,0.,1.));
#1107=DIRECTION('ref_axis',(1.,0.,0.));
#1108=DIRECTION('center_axis',(0.,0.,1.));
#1109=DIRECTION('ref_axis',(1.,0.,0.));
#1110=DIRECTION('',(0.,0.,1.));
#1111=DIRECTION('center_axis',(0.,0.,1.));
#1112=DIRECTION('ref_axis',(1.,0.,0.));
#1113=DIRECTION('center_axis',(0.,0.,-1.));
#1114=DIRECTION('ref_axis',(1.,0.,0.));
#1115=DIRECTION('center_axis',(0.,0.,-1.));
#1116=DIRECTION('ref_axis',(1.,0.,0.));
#1117=DIRECTION('center_axis',(0.,0.,-1.));
#1118=DIRECTION('ref_axis',(1.,0.,0.));
#1119=DIRECTION('center_axis',(0.,0.,-1.));
#1120=DIRECTION('ref_axis',(1.,0.,0.));
#1121=DIRECTION('',(0.,0.,-1.));
#1122=DIRECTION('center_axis',(0.,0.,-1.));
#1123=DIRECTION('ref_axis',(1.,0.,0.));
#1124=DIRECTION('center_axis',(0.,0.,-1.));
#1125=DIRECTION('ref_axis',(1.,0.,0.));
#1126=DIRECTION('',(0.,0.,-1.));
#1127=DIRECTION('center_axis',(0.,0.,-1.));
#1128=DIRECTION('ref_axis',(1.,0.,0.));
#1129=DIRECTION('center_axis',(0.,0.,-1.));
#1130=DIRECTION('ref_axis',(1.,0.,0.));
#1131=DIRECTION('',(0.,0.,-1.));
#1132=DIRECTION('center_axis',(0.,0.,-1.));
#1133=DIRECTION('ref_axis',(1.,0.,0.));
#1134=DIRECTION('center_axis',(0.,0.,-1.));
#1135=DIRECTION('ref_axis',(1.,0.,0.));
#1136=DIRECTION('',(0.,0.,-1.));
#1137=DIRECTION('center_axis',(0.707106781186549,0.,-0.707106781186546));
#1138=DIRECTION('ref_axis',(-0.707106781186546,0.,-0.707106781186549));
#1139=DIRECTION('',(-0.707106781186546,0.,-0.707106781186549));
#1140=DIRECTION('',(0.,1.,0.));
#1141=DIRECTION('',(0.707106781186546,0.,0.707106781186549));
#1142=DIRECTION('',(0.,-1.,0.));
#1143=DIRECTION('center_axis',(0.,0.,1.));
#1144=DIRECTION('ref_axis',(0.707106781186545,-0.70710678118655,0.));
#1145=DIRECTION('center_axis',(0.,0.,-1.));
#1146=DIRECTION('ref_axis',(0.707106781186545,-0.70710678118655,0.));
#1147=DIRECTION('',(0.,0.70710678118655,-0.707106781186545));
#1148=DIRECTION('center_axis',(0.,0.,1.));
#1149=DIRECTION('ref_axis',(0.707106781186545,-0.70710678118655,0.));
#1150=DIRECTION('center_axis',(0.,-0.707106781186547,-0.707106781186548));
#1151=DIRECTION('ref_axis',(-1.,0.,0.));
#1152=DIRECTION('',(0.,0.707106781186548,-0.707106781186547));
#1153=DIRECTION('',(1.,0.,0.));
#1154=DIRECTION('',(-1.,0.,0.));
#1155=DIRECTION('center_axis',(0.,0.,1.));
#1156=DIRECTION('ref_axis',(-0.707106781186549,-0.707106781186546,0.));
#1157=DIRECTION('center_axis',(0.,0.,-1.));
#1158=DIRECTION('ref_axis',(-0.707106781186549,-0.707106781186546,0.));
#1159=DIRECTION('',(0.70710678118655,0.,-0.707106781186545));
#1160=DIRECTION('center_axis',(0.,0.,1.));
#1161=DIRECTION('ref_axis',(-0.707106781186549,-0.707106781186546,0.));
#1162=DIRECTION('center_axis',(-0.707106781186546,-2.51698053652416E-17,
-0.707106781186549));
#1163=DIRECTION('ref_axis',(-0.707106781186549,0.,0.707106781186546));
#1164=DIRECTION('',(0.707106781186549,0.,-0.707106781186546));
#1165=DIRECTION('',(3.55954801098158E-17,-1.,0.));
#1166=DIRECTION('',(-3.55954801098158E-17,1.,0.));
#1167=DIRECTION('center_axis',(0.,0.,1.));
#1168=DIRECTION('ref_axis',(-0.707106781186549,0.707106781186546,0.));
#1169=DIRECTION('center_axis',(0.,0.,-1.));
#1170=DIRECTION('ref_axis',(-0.707106781186549,0.707106781186546,0.));
#1171=DIRECTION('',(0.,-0.70710678118654,-0.707106781186555));
#1172=DIRECTION('center_axis',(0.,0.,1.));
#1173=DIRECTION('ref_axis',(-0.707106781186549,0.707106781186546,0.));
#1174=DIRECTION('center_axis',(0.,0.707106781186549,-0.707106781186546));
#1175=DIRECTION('ref_axis',(-1.,0.,0.));
#1176=DIRECTION('',(0.,-0.707106781186546,-0.707106781186549));
#1177=DIRECTION('',(-1.,0.,0.));
#1178=DIRECTION('',(1.,0.,0.));
#1179=DIRECTION('center_axis',(0.,0.,1.));
#1180=DIRECTION('ref_axis',(0.707106781186547,0.707106781186547,0.));
#1181=DIRECTION('center_axis',(0.,0.,-1.));
#1182=DIRECTION('ref_axis',(0.707106781186548,0.707106781186548,0.));
#1183=DIRECTION('center_axis',(0.,0.,1.));
#1184=DIRECTION('ref_axis',(0.707106781186548,0.707106781186548,0.));
#1185=DIRECTION('center_axis',(0.,0.,1.));
#1186=DIRECTION('ref_axis',(-0.707106781186549,-0.707106781186546,0.));
#1187=DIRECTION('',(0.,0.,1.));
#1188=DIRECTION('center_axis',(0.,0.,-1.));
#1189=DIRECTION('ref_axis',(-0.707106781186549,-0.707106781186546,0.));
#1190=DIRECTION('',(0.,0.,-1.));
#1191=DIRECTION('center_axis',(0.,-1.,0.));
#1192=DIRECTION('ref_axis',(-1.,0.,0.));
#1193=DIRECTION('',(0.,0.,-1.));
#1194=DIRECTION('',(1.,0.,0.));
#1195=DIRECTION('center_axis',(0.,0.,1.));
#1196=DIRECTION('ref_axis',(0.707106781186545,-0.70710678118655,0.));
#1197=DIRECTION('',(0.,0.,1.));
#1198=DIRECTION('center_axis',(0.,0.,-1.));
#1199=DIRECTION('ref_axis',(0.707106781186545,-0.70710678118655,0.));
#1200=DIRECTION('center_axis',(1.,0.,0.));
#1201=DIRECTION('ref_axis',(0.,-1.,0.));
#1202=DIRECTION('',(0.,0.,-1.));
#1203=DIRECTION('',(0.,1.,0.));
#1204=DIRECTION('center_axis',(0.,0.,-1.));
#1205=DIRECTION('ref_axis',(-1.,0.,0.));
#1206=DIRECTION('center_axis',(0.,0.,1.));
#1207=DIRECTION('ref_axis',(1.,0.,0.));
#1208=DIRECTION('center_axis',(0.,0.,-1.));
#1209=DIRECTION('ref_axis',(0.707106781186548,0.707106781186548,0.));
#1210=DIRECTION('',(-1.,0.,0.));
#1211=DIRECTION('',(0.,-1.,0.));
#1212=DIRECTION('',(1.,0.,0.));
#1213=DIRECTION('',(0.,-1.,0.));
#1214=DIRECTION('',(-1.,2.33341850168075E-33,0.));
#1215=DIRECTION('',(-1.41794538385411E-33,1.,0.));
#1216=DIRECTION('',(1.,0.,0.));
#1217=DIRECTION('',(0.,1.,0.));
#1218=DIRECTION('',(-1.,0.,0.));
#1219=DIRECTION('center_axis',(0.,0.,-1.));
#1220=DIRECTION('ref_axis',(-0.707106781186549,0.707106781186546,0.));
#1221=DIRECTION('',(3.55954801098158E-17,-1.,0.));
#1222=DIRECTION('center_axis',(0.,0.,1.));
#1223=DIRECTION('ref_axis',(0.707106781186548,0.707106781186548,0.));
#1224=DIRECTION('',(0.,0.,1.));
#1225=DIRECTION('center_axis',(0.,0.,-1.));
#1226=DIRECTION('ref_axis',(-0.707106781186549,0.707106781186546,0.));
#1227=DIRECTION('',(0.,0.,1.));
#1228=DIRECTION('',(0.,0.,-1.));
#1229=DIRECTION('center_axis',(-1.,-3.55954801098158E-17,0.));
#1230=DIRECTION('ref_axis',(-3.55954801098158E-17,1.,0.));
#1231=DIRECTION('center_axis',(0.,-1.,0.));
#1232=DIRECTION('ref_axis',(0.,0.,1.));
#1233=DIRECTION('center_axis',(0.,-1.,0.));
#1234=DIRECTION('ref_axis',(0.,0.,1.));
#1235=DIRECTION('',(0.,-1.,0.));
#1236=DIRECTION('center_axis',(0.,1.,0.));
#1237=DIRECTION('ref_axis',(0.,0.,1.));
#1238=DIRECTION('center_axis',(1.,0.,0.));
#1239=DIRECTION('ref_axis',(0.,0.,1.));
#1240=DIRECTION('',(0.,0.,1.));
#1241=DIRECTION('',(0.,-1.,0.));
#1242=DIRECTION('',(0.,0.,-1.));
#1243=DIRECTION('center_axis',(0.,-1.,0.));
#1244=DIRECTION('ref_axis',(1.,0.,-1.00929365875014E-15));
#1245=DIRECTION('center_axis',(0.,-1.,0.));
#1246=DIRECTION('ref_axis',(1.,0.,-1.00929365875014E-15));
#1247=DIRECTION('',(0.,-1.,0.));
#1248=DIRECTION('center_axis',(0.,1.,0.));
#1249=DIRECTION('ref_axis',(1.,0.,-1.00929365875014E-15));
#1250=DIRECTION('center_axis',(-1.7239487960018E-16,0.,-1.));
#1251=DIRECTION('ref_axis',(1.,0.,-1.7239487960018E-16));
#1252=DIRECTION('',(1.,0.,-1.7239487960018E-16));
#1253=DIRECTION('',(0.,-1.,0.));
#1254=DIRECTION('',(-1.,0.,1.7239487960018E-16));
#1255=DIRECTION('center_axis',(0.,-1.,0.));
#1256=DIRECTION('ref_axis',(0.,0.,-1.));
#1257=DIRECTION('center_axis',(0.,-1.,0.));
#1258=DIRECTION('ref_axis',(0.,0.,-1.));
#1259=DIRECTION('',(0.,-1.,0.));
#1260=DIRECTION('center_axis',(0.,1.,0.));
#1261=DIRECTION('ref_axis',(0.,0.,-1.));
#1262=DIRECTION('center_axis',(-1.,0.,6.25477760352202E-15));
#1263=DIRECTION('ref_axis',(-6.25477760352202E-15,0.,-1.));
#1264=DIRECTION('',(-6.25477760352202E-15,0.,-1.));
#1265=DIRECTION('',(0.,-1.,0.));
#1266=DIRECTION('',(6.25477760352202E-15,0.,1.));
#1267=DIRECTION('center_axis',(0.,-1.,0.));
#1268=DIRECTION('ref_axis',(-1.,0.,-1.00929365875014E-15));
#1269=DIRECTION('center_axis',(0.,-1.,0.));
#1270=DIRECTION('ref_axis',(-1.,0.,-1.00929365875014E-15));
#1271=DIRECTION('center_axis',(0.,1.,0.));
#1272=DIRECTION('ref_axis',(-1.,0.,-1.00929365875014E-15));
#1273=DIRECTION('center_axis',(0.,-1.,0.));
#1274=DIRECTION('ref_axis',(1.,0.,0.));
#1275=DIRECTION('',(0.,0.,1.));
#1276=DIRECTION('',(-1.,0.,0.));
#1277=DIRECTION('',(0.,0.,1.));
#1278=DIRECTION('center_axis',(0.,1.,0.));
#1279=DIRECTION('ref_axis',(1.,0.,0.));
#1280=DIRECTION('center_axis',(2.33341850168075E-33,1.,0.));
#1281=DIRECTION('ref_axis',(-1.,2.33341850168075E-33,0.));
#1282=DIRECTION('',(1.,-2.33341850168075E-33,0.));
#1283=DIRECTION('',(0.,0.,1.));
#1284=DIRECTION('',(0.,0.,1.));
#1285=DIRECTION('center_axis',(-1.,0.,0.));
#1286=DIRECTION('ref_axis',(0.,-1.,0.));
#1287=DIRECTION('',(0.,1.,0.));
#1288=DIRECTION('center_axis',(1.,1.41794538385411E-33,0.));
#1289=DIRECTION('ref_axis',(-1.41794538385411E-33,1.,0.));
#1290=DIRECTION('',(1.41794538385411E-33,-1.,0.));
#1291=DIRECTION('center_axis',(0.,0.,1.));
#1292=DIRECTION('ref_axis',(1.,0.,0.));
#1293=DIRECTION('center_axis',(0.,0.,1.));
#1294=DIRECTION('ref_axis',(1.,0.,0.));
#1295=DIRECTION('center_axis',(0.,0.,-1.));
#1296=DIRECTION('ref_axis',(1.,0.,0.));
#1297=DIRECTION('',(0.,0.,-1.));
#1298=DIRECTION('center_axis',(0.,0.,-1.));
#1299=DIRECTION('ref_axis',(1.,0.,0.));
#1300=DIRECTION('center_axis',(0.,0.,1.));
#1301=DIRECTION('ref_axis',(1.,0.,0.));
#1302=DIRECTION('center_axis',(0.,0.,1.));
#1303=DIRECTION('ref_axis',(1.,0.,0.));
#1304=DIRECTION('',(0.,0.,-1.));
#1305=DIRECTION('center_axis',(0.,0.,1.));
#1306=DIRECTION('ref_axis',(1.,0.,0.));
#1307=DIRECTION('center_axis',(0.,0.,1.));
#1308=DIRECTION('ref_axis',(1.,0.,0.));
#1309=DIRECTION('center_axis',(0.,0.,1.));
#1310=DIRECTION('ref_axis',(1.,0.,0.));
#1311=DIRECTION('center_axis',(0.,0.,1.));
#1312=DIRECTION('ref_axis',(1.,0.,0.));
#1313=DIRECTION('center_axis',(0.,0.,-1.));
#1314=DIRECTION('ref_axis',(1.,0.,0.));
#1315=DIRECTION('',(0.,0.,-1.));
#1316=DIRECTION('center_axis',(0.,0.,-1.));
#1317=DIRECTION('ref_axis',(1.,0.,0.));
#1318=DIRECTION('center_axis',(0.,0.,1.));
#1319=DIRECTION('ref_axis',(1.,0.,0.));
#1320=DIRECTION('center_axis',(0.,0.,1.));
#1321=DIRECTION('ref_axis',(1.,0.,0.));
#1322=DIRECTION('',(0.,0.,-1.));
#1323=DIRECTION('center_axis',(0.,0.,1.));
#1324=DIRECTION('ref_axis',(1.,0.,0.));
#1325=DIRECTION('center_axis',(0.,0.,1.));
#1326=DIRECTION('ref_axis',(1.,0.,0.));
#1327=DIRECTION('center_axis',(0.,0.,1.));
#1328=DIRECTION('ref_axis',(1.,0.,0.));
#1329=DIRECTION('center_axis',(0.,0.,1.));
#1330=DIRECTION('ref_axis',(1.,0.,0.));
#1331=DIRECTION('center_axis',(0.,0.,-1.));
#1332=DIRECTION('ref_axis',(1.,0.,0.));
#1333=DIRECTION('',(0.,0.,-1.));
#1334=DIRECTION('center_axis',(0.,0.,-1.));
#1335=DIRECTION('ref_axis',(1.,0.,0.));
#1336=DIRECTION('center_axis',(0.,0.,1.));
#1337=DIRECTION('ref_axis',(1.,0.,0.));
#1338=DIRECTION('center_axis',(0.,0.,1.));
#1339=DIRECTION('ref_axis',(1.,0.,0.));
#1340=DIRECTION('',(0.,0.,-1.));
#1341=DIRECTION('center_axis',(0.,0.,1.));
#1342=DIRECTION('ref_axis',(1.,0.,0.));
#1343=DIRECTION('center_axis',(0.,0.,1.));
#1344=DIRECTION('ref_axis',(1.,0.,0.));
#1345=DIRECTION('center_axis',(0.,0.,1.));
#1346=DIRECTION('ref_axis',(1.,0.,0.));
#1347=DIRECTION('center_axis',(0.,0.,1.));
#1348=DIRECTION('ref_axis',(1.,0.,0.));
#1349=DIRECTION('center_axis',(0.,0.,-1.));
#1350=DIRECTION('ref_axis',(1.,0.,0.));
#1351=DIRECTION('',(0.,0.,-1.));
#1352=DIRECTION('center_axis',(0.,0.,-1.));
#1353=DIRECTION('ref_axis',(1.,0.,0.));
#1354=DIRECTION('center_axis',(0.,0.,1.));
#1355=DIRECTION('ref_axis',(1.,0.,0.));
#1356=DIRECTION('center_axis',(0.,0.,1.));
#1357=DIRECTION('ref_axis',(1.,0.,0.));
#1358=DIRECTION('',(0.,0.,-1.));
#1359=DIRECTION('center_axis',(0.,0.,1.));
#1360=DIRECTION('ref_axis',(1.,0.,0.));
#1361=DIRECTION('center_axis',(0.,0.,1.));
#1362=DIRECTION('ref_axis',(1.,0.,0.));
#1363=DIRECTION('center_axis',(0.,0.,1.));
#1364=DIRECTION('ref_axis',(1.,0.,0.));
#1365=CARTESIAN_POINT('',(0.,0.,0.));
#1366=CARTESIAN_POINT('Origin',(3.99999999999999,81.37,-5.));
#1367=CARTESIAN_POINT('',(0.749999999999988,81.37,-5.));
#1368=CARTESIAN_POINT('Origin',(3.99999999999999,81.37,-5.));
#1369=CARTESIAN_POINT('',(0.749999999999988,81.37,-1.8));
#1370=CARTESIAN_POINT('',(0.749999999999988,81.37,-5.));
#1371=CARTESIAN_POINT('Origin',(3.99999999999999,81.37,-1.8));
#1372=CARTESIAN_POINT('Origin',(3.99999999999999,81.37,-1.8));
#1373=CARTESIAN_POINT('',(2.39999999999999,81.37,-1.8));
#1374=CARTESIAN_POINT('Origin',(3.99999999999999,81.37,-1.8));
#1375=CARTESIAN_POINT('Origin',(74.21,4.00000000000002,-5.));
#1376=CARTESIAN_POINT('',(70.96,4.00000000000002,-5.));
#1377=CARTESIAN_POINT('Origin',(74.21,4.00000000000002,-5.));
#1378=CARTESIAN_POINT('',(70.96,4.00000000000002,-1.8));
#1379=CARTESIAN_POINT('',(70.96,4.00000000000002,-5.));
#1380=CARTESIAN_POINT('Origin',(74.21,4.00000000000002,-1.8));
#1381=CARTESIAN_POINT('Origin',(74.21,4.00000000000002,-1.8));
#1382=CARTESIAN_POINT('',(72.61,4.00000000000002,-1.8));
#1383=CARTESIAN_POINT('Origin',(74.21,4.00000000000002,-1.8));
#1384=CARTESIAN_POINT('Origin',(74.21,81.37,-5.));
#1385=CARTESIAN_POINT('',(70.96,81.37,-5.));
#1386=CARTESIAN_POINT('Origin',(74.21,81.37,-5.));
#1387=CARTESIAN_POINT('',(70.96,81.37,-1.8));
#1388=CARTESIAN_POINT('',(70.96,81.37,-5.));
#1389=CARTESIAN_POINT('Origin',(74.21,81.37,-1.8));
#1390=CARTESIAN_POINT('Origin',(74.21,81.37,-1.8));
#1391=CARTESIAN_POINT('',(72.61,81.37,-1.8));
#1392=CARTESIAN_POINT('Origin',(74.21,81.37,-1.8));
#1393=CARTESIAN_POINT('Origin',(4.,4.00000000000002,-5.));
#1394=CARTESIAN_POINT('',(0.750000000000004,4.00000000000002,-5.));
#1395=CARTESIAN_POINT('Origin',(4.,4.00000000000002,-5.));
#1396=CARTESIAN_POINT('',(0.750000000000004,4.00000000000002,-1.8));
#1397=CARTESIAN_POINT('',(0.750000000000004,4.00000000000002,-5.));
#1398=CARTESIAN_POINT('Origin',(4.,4.00000000000002,-1.8));
#1399=CARTESIAN_POINT('Origin',(4.,4.00000000000002,-1.8));
#1400=CARTESIAN_POINT('',(2.4,4.00000000000002,-1.8));
#1401=CARTESIAN_POINT('Origin',(4.,4.00000000000002,-1.8));
#1402=CARTESIAN_POINT('Origin',(3.99999999999999,81.37,0.));
#1403=CARTESIAN_POINT('',(2.39999999999999,81.37,0.));
#1404=CARTESIAN_POINT('Origin',(3.99999999999999,81.37,0.));
#1405=CARTESIAN_POINT('',(2.39999999999999,81.37,0.));
#1406=CARTESIAN_POINT('Origin',(4.,4.00000000000002,0.));
#1407=CARTESIAN_POINT('',(2.4,4.00000000000002,0.));
#1408=CARTESIAN_POINT('Origin',(4.,4.00000000000002,0.));
#1409=CARTESIAN_POINT('',(2.4,4.00000000000002,0.));
#1410=CARTESIAN_POINT('Origin',(74.21,81.37,0.));
#1411=CARTESIAN_POINT('',(72.61,81.37,0.));
#1412=CARTESIAN_POINT('Origin',(74.21,81.37,0.));
#1413=CARTESIAN_POINT('',(72.61,81.37,0.));
#1414=CARTESIAN_POINT('Origin',(74.21,4.00000000000002,0.));
#1415=CARTESIAN_POINT('',(72.61,4.00000000000002,0.));
#1416=CARTESIAN_POINT('Origin',(74.21,4.00000000000002,0.));
#1417=CARTESIAN_POINT('',(72.61,4.00000000000002,0.));
#1418=CARTESIAN_POINT('Origin',(81.91,66.1775,-4.5));
#1419=CARTESIAN_POINT('',(82.41,-1.99999999999999,-4.));
#1420=CARTESIAN_POINT('',(81.41,-1.99999999999999,-5.));
#1421=CARTESIAN_POINT('',(82.41,-1.99999999999999,-4.));
#1422=CARTESIAN_POINT('',(81.41,87.57,-5.));
#1423=CARTESIAN_POINT('',(81.41,66.1775,-5.));
#1424=CARTESIAN_POINT('',(82.41,87.57,-4.));
#1425=CARTESIAN_POINT('',(81.41,87.57,-5.));
#1426=CARTESIAN_POINT('',(82.41,66.1775,-4.));
#1427=CARTESIAN_POINT('Origin',(80.41,-1.99999999999999,-4.5));
#1428=CARTESIAN_POINT('',(80.41,-4.,-4.));
#1429=CARTESIAN_POINT('Origin',(80.41,-1.99999999999999,-4.));
#1430=CARTESIAN_POINT('',(80.41,-2.99999999999999,-5.));
#1431=CARTESIAN_POINT('',(80.41,-4.,-4.));
#1432=CARTESIAN_POINT('Origin',(80.41,-1.99999999999999,-5.));
#1433=CARTESIAN_POINT('Origin',(60.8075,-3.5,-4.5));
#1434=CARTESIAN_POINT('',(-1.99999999999999,-4.,-4.));
#1435=CARTESIAN_POINT('',(-1.99999999999999,-3.,-5.));
#1436=CARTESIAN_POINT('',(-1.99999999999999,-4.,-4.));
#1437=CARTESIAN_POINT('',(60.8075,-3.,-5.));
#1438=CARTESIAN_POINT('',(60.8075,-4.,-4.));
#1439=CARTESIAN_POINT('Origin',(-1.99999999999999,-2.,-4.5));
#1440=CARTESIAN_POINT('',(-4.,-2.,-4.));
#1441=CARTESIAN_POINT('Origin',(-1.99999999999999,-2.,-4.));
#1442=CARTESIAN_POINT('',(-2.99999999999999,-2.,-5.));
#1443=CARTESIAN_POINT('',(-4.,-2.,-4.));
#1444=CARTESIAN_POINT('Origin',(-1.99999999999999,-2.,-5.));
#1445=CARTESIAN_POINT('Origin',(-3.5,19.3925,-4.5));
#1446=CARTESIAN_POINT('',(-4.,87.57,-4.));
#1447=CARTESIAN_POINT('',(-3.,87.57,-5.));
#1448=CARTESIAN_POINT('',(-4.,87.57,-4.));
#1449=CARTESIAN_POINT('',(-3.,19.3925,-5.));
#1450=CARTESIAN_POINT('',(-4.,19.3925,-4.));
#1451=CARTESIAN_POINT('Origin',(-2.,87.57,-4.5));
#1452=CARTESIAN_POINT('',(-2.,89.57,-4.));
#1453=CARTESIAN_POINT('Origin',(-2.,87.57,-4.));
#1454=CARTESIAN_POINT('',(-2.,88.57,-5.));
#1455=CARTESIAN_POINT('',(-2.,89.57,-4.));
#1456=CARTESIAN_POINT('Origin',(-2.,87.57,-5.));
#1457=CARTESIAN_POINT('Origin',(17.6025,89.07,-4.5));
#1458=CARTESIAN_POINT('',(80.41,89.57,-4.));
#1459=CARTESIAN_POINT('',(80.41,88.57,-5.));
#1460=CARTESIAN_POINT('',(80.41,89.57,-4.));
#1461=CARTESIAN_POINT('',(17.6025,88.57,-5.));
#1462=CARTESIAN_POINT('',(17.6025,89.57,-4.));
#1463=CARTESIAN_POINT('Origin',(80.41,87.57,-4.5));
#1464=CARTESIAN_POINT('Origin',(80.41,87.57,-4.));
#1465=CARTESIAN_POINT('Origin',(80.41,87.57,-5.));
#1466=CARTESIAN_POINT('Origin',(-1.99999999999999,-2.,0.));
#1467=CARTESIAN_POINT('',(-1.99999999999999,-4.,9.));
#1468=CARTESIAN_POINT('',(-1.99999999999999,-4.,0.));
#1469=CARTESIAN_POINT('',(-4.,-1.99999999999999,9.));
#1470=CARTESIAN_POINT('Origin',(-1.99999999999999,-2.,9.));
#1471=CARTESIAN_POINT('',(-4.,-2.,0.));
#1472=CARTESIAN_POINT('Origin',(82.41,-4.,0.));
#1473=CARTESIAN_POINT('',(80.41,-4.,9.));
#1474=CARTESIAN_POINT('',(80.41,-4.,0.));
#1475=CARTESIAN_POINT('',(-4.,-4.,9.));
#1476=CARTESIAN_POINT('Origin',(80.41,-1.99999999999999,0.));
#1477=CARTESIAN_POINT('',(82.41,-1.99999999999999,9.));
#1478=CARTESIAN_POINT('',(82.41,-1.99999999999999,0.));
#1479=CARTESIAN_POINT('Origin',(80.41,-1.99999999999999,9.));
#1480=CARTESIAN_POINT('Origin',(82.41,89.57,0.));
#1481=CARTESIAN_POINT('',(82.41,87.57,9.));
#1482=CARTESIAN_POINT('',(82.41,87.57,0.));
#1483=CARTESIAN_POINT('',(82.41,-4.,9.));
#1484=CARTESIAN_POINT('Origin',(39.205,42.785,-5.));
#1485=CARTESIAN_POINT('Origin',(39.205,42.785,9.));
#1486=CARTESIAN_POINT('',(80.41,89.57,9.));
#1487=CARTESIAN_POINT('Origin',(80.41,87.57,9.));
#1488=CARTESIAN_POINT('',(36.4227475841052,89.57,9.));
#1489=CARTESIAN_POINT('',(82.41,89.57,9.));
#1490=CARTESIAN_POINT('',(36.4227475841052,85.57,9.));
#1491=CARTESIAN_POINT('',(36.4227475841052,89.57,9.));
#1492=CARTESIAN_POINT('',(78.41,85.57,9.));
#1493=CARTESIAN_POINT('',(78.41,85.57,9.));
#1494=CARTESIAN_POINT('',(78.41,-1.82963344716787E-31,9.));
#1495=CARTESIAN_POINT('',(78.41,-1.82963344716787E-31,9.));
#1496=CARTESIAN_POINT('',(0.,0.,9.));
#1497=CARTESIAN_POINT('',(0.,0.,9.));
#1498=CARTESIAN_POINT('',(-1.21333586496396E-31,85.57,9.));
#1499=CARTESIAN_POINT('',(-1.21333586496396E-31,85.57,9.));
#1500=CARTESIAN_POINT('',(27.8872524158932,85.57,9.));
#1501=CARTESIAN_POINT('',(78.41,85.57,9.));
#1502=CARTESIAN_POINT('',(27.8872524158932,89.57,9.));
#1503=CARTESIAN_POINT('',(27.8872524158932,89.57,9.));
#1504=CARTESIAN_POINT('',(-2.00000000000001,89.57,9.));
#1505=CARTESIAN_POINT('',(82.41,89.57,9.));
#1506=CARTESIAN_POINT('',(-4.,87.57,9.));
#1507=CARTESIAN_POINT('Origin',(-2.,87.57,9.));
#1508=CARTESIAN_POINT('',(-4.,89.57,9.));
#1509=CARTESIAN_POINT('Origin',(80.41,87.57,0.));
#1510=CARTESIAN_POINT('',(80.41,89.57,0.));
#1511=CARTESIAN_POINT('Origin',(-2.,87.57,0.));
#1512=CARTESIAN_POINT('',(-4.,87.57,0.));
#1513=CARTESIAN_POINT('',(-2.,89.57,0.));
#1514=CARTESIAN_POINT('Origin',(-4.,-4.,0.));
#1515=CARTESIAN_POINT('Origin',(35.3749999999992,89.57,8.66499999999997));
#1516=CARTESIAN_POINT('',(36.4749999999992,89.57,8.66499999999997));
#1517=CARTESIAN_POINT('Origin',(35.3749999999992,89.57,8.66499999999997));
#1518=CARTESIAN_POINT('',(36.4749999999992,85.57,8.66499999999997));
#1519=CARTESIAN_POINT('',(36.4749999999992,89.57,8.66499999999997));
#1520=CARTESIAN_POINT('Origin',(35.3749999999992,85.57,8.66499999999997));
#1521=CARTESIAN_POINT('Origin',(36.4749999999992,89.57,7.95499999999997));
#1522=CARTESIAN_POINT('',(36.4749999999992,89.57,7.95499999999997));
#1523=CARTESIAN_POINT('',(36.4749999999992,89.57,3.97749999999998));
#1524=CARTESIAN_POINT('',(36.4749999999992,85.57,7.95499999999997));
#1525=CARTESIAN_POINT('',(36.4749999999992,89.57,7.95499999999997));
#1526=CARTESIAN_POINT('',(36.4749999999992,85.57,3.97749999999998));
#1527=CARTESIAN_POINT('Origin',(35.3749999999992,89.57,7.95499999999997));
#1528=CARTESIAN_POINT('',(35.3749999999992,89.57,6.85499999999997));
#1529=CARTESIAN_POINT('Origin',(35.3749999999992,89.57,7.95499999999997));
#1530=CARTESIAN_POINT('',(35.3749999999992,85.57,6.85499999999997));
#1531=CARTESIAN_POINT('',(35.3749999999992,89.57,6.85499999999997));
#1532=CARTESIAN_POINT('Origin',(35.3749999999992,85.57,7.95499999999997));
#1533=CARTESIAN_POINT('Origin',(28.9349999999992,89.57,6.85499999999997));
#1534=CARTESIAN_POINT('',(28.9349999999992,89.57,6.85499999999997));
#1535=CARTESIAN_POINT('',(12.4674999999996,89.57,6.85499999999997));
#1536=CARTESIAN_POINT('',(28.9349999999992,85.57,6.85499999999997));
#1537=CARTESIAN_POINT('',(28.9349999999992,89.57,6.85499999999997));
#1538=CARTESIAN_POINT('',(14.4674999999996,85.57,6.85499999999997));
#1539=CARTESIAN_POINT('Origin',(28.9349999999992,89.57,7.95499999999997));
#1540=CARTESIAN_POINT('',(27.8349999999992,89.57,7.95499999999997));
#1541=CARTESIAN_POINT('Origin',(28.9349999999992,89.57,7.95499999999997));
#1542=CARTESIAN_POINT('',(27.8349999999992,85.57,7.95499999999997));
#1543=CARTESIAN_POINT('',(27.8349999999992,89.57,7.95499999999997));
#1544=CARTESIAN_POINT('Origin',(28.9349999999992,85.57,7.95499999999997));
#1545=CARTESIAN_POINT('Origin',(27.8349999999992,89.57,8.66499999999997));
#1546=CARTESIAN_POINT('',(27.8349999999992,89.57,8.66499999999997));
#1547=CARTESIAN_POINT('',(27.8349999999992,89.57,4.33249999999988));
#1548=CARTESIAN_POINT('',(27.8349999999992,85.57,8.66499999999997));
#1549=CARTESIAN_POINT('',(27.8349999999992,89.57,8.66499999999997));
#1550=CARTESIAN_POINT('',(27.8349999999992,85.57,4.3324999999999));
#1551=CARTESIAN_POINT('Origin',(28.9349999999992,89.57,8.66499999999997));
#1552=CARTESIAN_POINT('Origin',(28.9349999999992,89.57,8.66499999999997));
#1553=CARTESIAN_POINT('Origin',(28.9349999999992,85.57,8.66499999999997));
#1554=CARTESIAN_POINT('Origin',(0.,85.57,0.));
#1555=CARTESIAN_POINT('',(-1.21333586496396E-31,85.57,0.));
#1556=CARTESIAN_POINT('',(-1.21333586496396E-31,85.57,0.));
#1557=CARTESIAN_POINT('',(78.41,85.57,0.));
#1558=CARTESIAN_POINT('',(19.6025,85.57,0.));
#1559=CARTESIAN_POINT('',(78.41,85.57,0.));
#1560=CARTESIAN_POINT('Origin',(-4.,89.57,0.));
#1561=CARTESIAN_POINT('Origin',(78.41,-1.82963344716787E-31,0.));
#1562=CARTESIAN_POINT('',(0.,0.,0.));
#1563=CARTESIAN_POINT('',(78.41,-1.82963344716787E-31,0.));
#1564=CARTESIAN_POINT('',(58.8075,0.,0.));
#1565=CARTESIAN_POINT('',(0.,0.,0.));
#1566=CARTESIAN_POINT('',(78.41,-1.82963344716787E-31,0.));
#1567=CARTESIAN_POINT('Origin',(78.41,85.57,0.));
#1568=CARTESIAN_POINT('',(78.41,64.1775,0.));
#1569=CARTESIAN_POINT('Origin',(0.,0.,0.));
#1570=CARTESIAN_POINT('',(0.,21.3925,0.));
#1571=CARTESIAN_POINT('Origin',(39.205,42.785,0.));
#1572=CARTESIAN_POINT('Origin',(3.99999999999999,81.37,0.));
#1573=CARTESIAN_POINT('',(2.39999999999999,81.37,4.));
#1574=CARTESIAN_POINT('Origin',(3.99999999999999,81.37,4.));
#1575=CARTESIAN_POINT('',(2.39999999999999,81.37,0.));
#1576=CARTESIAN_POINT('',(2.39999999999999,81.37,0.));
#1577=CARTESIAN_POINT('Origin',(3.99999999999999,81.37,0.));
#1578=CARTESIAN_POINT('Origin',(3.99999999999999,81.37,0.));
#1579=CARTESIAN_POINT('',(0.899999999999985,81.37,4.));
#1580=CARTESIAN_POINT('Origin',(3.99999999999999,81.37,4.));
#1581=CARTESIAN_POINT('',(0.899999999999985,81.37,0.));
#1582=CARTESIAN_POINT('',(0.899999999999985,81.37,0.));
#1583=CARTESIAN_POINT('Origin',(3.99999999999999,81.37,0.));
#1584=CARTESIAN_POINT('Origin',(3.99999999999999,81.37,4.));
#1585=CARTESIAN_POINT('Origin',(3.99999999999999,81.37,0.));
#1586=CARTESIAN_POINT('Origin',(74.21,81.37,0.));
#1587=CARTESIAN_POINT('',(72.61,81.37,4.));
#1588=CARTESIAN_POINT('Origin',(74.21,81.37,4.));
#1589=CARTESIAN_POINT('',(72.61,81.37,0.));
#1590=CARTESIAN_POINT('',(72.61,81.37,0.));
#1591=CARTESIAN_POINT('Origin',(74.21,81.37,0.));
#1592=CARTESIAN_POINT('Origin',(74.21,81.37,0.));
#1593=CARTESIAN_POINT('',(71.11,81.37,4.));
#1594=CARTESIAN_POINT('Origin',(74.21,81.37,4.));
#1595=CARTESIAN_POINT('',(71.11,81.37,0.));
#1596=CARTESIAN_POINT('',(71.11,81.37,0.));
#1597=CARTESIAN_POINT('Origin',(74.21,81.37,0.));
#1598=CARTESIAN_POINT('Origin',(74.21,81.37,4.));
#1599=CARTESIAN_POINT('Origin',(74.21,81.37,0.));
#1600=CARTESIAN_POINT('Origin',(4.,4.00000000000002,0.));
#1601=CARTESIAN_POINT('',(2.4,4.00000000000002,4.));
#1602=CARTESIAN_POINT('Origin',(4.,4.00000000000002,4.));
#1603=CARTESIAN_POINT('',(2.4,4.00000000000002,0.));
#1604=CARTESIAN_POINT('',(2.4,4.00000000000002,0.));
#1605=CARTESIAN_POINT('Origin',(4.,4.00000000000002,0.));
#1606=CARTESIAN_POINT('Origin',(4.,4.00000000000002,0.));
#1607=CARTESIAN_POINT('',(0.900000000000003,4.00000000000002,4.));
#1608=CARTESIAN_POINT('Origin',(4.,4.00000000000002,4.));
#1609=CARTESIAN_POINT('',(0.900000000000003,4.00000000000002,0.));
#1610=CARTESIAN_POINT('',(0.900000000000003,4.00000000000002,0.));
#1611=CARTESIAN_POINT('Origin',(4.,4.00000000000002,0.));
#1612=CARTESIAN_POINT('Origin',(4.,4.00000000000002,4.));
#1613=CARTESIAN_POINT('Origin',(4.,4.00000000000002,0.));
#1614=CARTESIAN_POINT('Origin',(74.21,4.00000000000002,0.));
#1615=CARTESIAN_POINT('',(72.61,4.00000000000002,4.));
#1616=CARTESIAN_POINT('Origin',(74.21,4.00000000000002,4.));
#1617=CARTESIAN_POINT('',(72.61,4.00000000000002,0.));
#1618=CARTESIAN_POINT('',(72.61,4.00000000000002,0.));
#1619=CARTESIAN_POINT('Origin',(74.21,4.00000000000002,0.));
#1620=CARTESIAN_POINT('Origin',(74.21,4.00000000000002,0.));
#1621=CARTESIAN_POINT('',(71.11,4.00000000000002,4.));
#1622=CARTESIAN_POINT('Origin',(74.21,4.00000000000002,4.));
#1623=CARTESIAN_POINT('',(71.11,4.00000000000002,0.));
#1624=CARTESIAN_POINT('',(71.11,4.00000000000002,0.));
#1625=CARTESIAN_POINT('Origin',(74.21,4.00000000000002,0.));
#1626=CARTESIAN_POINT('Origin',(74.21,4.00000000000002,4.));
#1627=CARTESIAN_POINT('Origin',(74.21,4.00000000000002,0.));
#1628=UNCERTAINTY_MEASURE_WITH_UNIT(LENGTH_MEASURE(0.01),#1632,
'DISTANCE_ACCURACY_VALUE',
'Maximum model space distance between geometric entities at asserted c
onnectivities');
#1629=UNCERTAINTY_MEASURE_WITH_UNIT(LENGTH_MEASURE(0.01),#1632,
'DISTANCE_ACCURACY_VALUE',
'Maximum model space distance between geometric entities at asserted c
onnectivities');
#1630=(
GEOMETRIC_REPRESENTATION_CONTEXT(3)
GLOBAL_UNCERTAINTY_ASSIGNED_CONTEXT((#1628))
GLOBAL_UNIT_ASSIGNED_CONTEXT((#1632,#1634,#1635))
REPRESENTATION_CONTEXT('','3D')
);
#1631=(
GEOMETRIC_REPRESENTATION_CONTEXT(3)
GLOBAL_UNCERTAINTY_ASSIGNED_CONTEXT((#1629))
GLOBAL_UNIT_ASSIGNED_CONTEXT((#1632,#1634,#1635))
REPRESENTATION_CONTEXT('','3D')
);
#1632=(
LENGTH_UNIT()
NAMED_UNIT(*)
SI_UNIT(.MILLI.,.METRE.)
);
#1633=(
LENGTH_UNIT()
NAMED_UNIT(*)
SI_UNIT($,.METRE.)
);
#1634=(
NAMED_UNIT(*)
PLANE_ANGLE_UNIT()
SI_UNIT($,.RADIAN.)
);
#1635=(
NAMED_UNIT(*)
SI_UNIT($,.STERADIAN.)
SOLID_ANGLE_UNIT()
);
#1636=SHAPE_DEFINITION_REPRESENTATION(#1637,#1638);
#1637=PRODUCT_DEFINITION_SHAPE('',$,#1640);
#1638=SHAPE_REPRESENTATION('',(#960),#1630);
#1639=PRODUCT_DEFINITION_CONTEXT('part definition',#1644,'design');
#1640=PRODUCT_DEFINITION('2026-09-10-21-27-22-976','case_bottom',#1641,
#1639);
#1641=PRODUCT_DEFINITION_FORMATION('',$,#1646);
#1642=PRODUCT_RELATED_PRODUCT_CATEGORY('case_bottom','case_bottom',(#1646));
#1643=APPLICATION_PROTOCOL_DEFINITION('international standard',
'automotive_design',2009,#1644);
#1644=APPLICATION_CONTEXT(
'Core Data for Automotive Mechanical Design Process');
#1645=PRODUCT_CONTEXT('part definition',#1644,'mechanical');
#1646=PRODUCT('2026-09-10-21-27-22-976','case_bottom',$,(#1645));
#1647=PRESENTATION_STYLE_ASSIGNMENT((#1649));
#1648=PRESENTATION_STYLE_ASSIGNMENT((#1650));
#1649=SURFACE_STYLE_USAGE(.BOTH.,#1651);
#1650=SURFACE_STYLE_USAGE(.BOTH.,#1652);
#1651=SURFACE_SIDE_STYLE('',(#1653));
#1652=SURFACE_SIDE_STYLE('',(#1654));
#1653=SURFACE_STYLE_FILL_AREA(#1655);
#1654=SURFACE_STYLE_FILL_AREA(#1656);
#1655=FILL_AREA_STYLE('Steel - Satin',(#1657));
#1656=FILL_AREA_STYLE('Nylon 12 (with Formlabs Fuse 1 3D Printer)',(#1658));
#1657=FILL_AREA_STYLE_COLOUR('Steel - Satin',#1659);
#1658=FILL_AREA_STYLE_COLOUR(
'Nylon 12 (with Formlabs Fuse 1 3D Printer)',#1660);
#1659=COLOUR_RGB('Steel - Satin',0.627450980392157,0.627450980392157,0.627450980392157);
#1660=COLOUR_RGB('Nylon 12 (with Formlabs Fuse 1 3D Printer)',0.247058823529412,
0.247058823529412,0.247058823529412);
ENDSEC;
END-ISO-10303-21;
